<svg width="45" height="9" viewBox="0 0 45 9" fill="none" xmlns="http://www.w3.org/2000/svg">
<path d="M8.8653 5.58861C8.26421 7.99932 5.82228 9.46644 3.41101 8.86528C1.00072 8.26425 -0.466579 5.82246 0.134798 3.41189C0.735611 1.0009 3.17755 -0.466365 5.58811 0.134661C7.99924 0.735686 9.4664 3.17775 8.8653 5.58861Z" fill="#F7931A"/>
<path d="M6.98693 4.01009C7.09097 3.48471 6.56147 3.20228 5.83746 3.01387L6.07232 2.30217L5.49889 2.19421L5.27024 2.88715C5.11949 2.85877 4.96465 2.832 4.8108 2.80547L5.04109 2.10796L4.46799 2L4.23296 2.71145C4.10818 2.68998 3.98569 2.66876 3.86679 2.64642L3.86744 2.6442L3.07663 2.49503L2.92409 2.95773C2.92409 2.95773 3.34955 3.03139 3.34056 3.03595C3.57281 3.07976 3.61478 3.19586 3.60776 3.28791L3.34024 4.09868C3.35624 4.10177 3.37699 4.10621 3.39985 4.11312C3.38074 4.10954 3.36033 4.10559 3.33926 4.10177L2.96426 5.23755C2.93584 5.29085 2.86382 5.3708 2.70148 5.34045C2.70719 5.34674 2.28468 5.26185 2.28468 5.26185L2 5.75774L2.74623 5.89828C2.88505 5.92456 3.0211 5.95207 3.15503 5.97799L2.91772 6.69783L3.4905 6.80579L3.72552 6.0936C3.88198 6.12568 4.03387 6.1553 4.1825 6.18318L3.94829 6.89204L4.52172 7L4.75903 6.28152C5.73685 6.42132 6.47214 6.36493 6.78164 5.69679C7.03103 5.15882 6.76922 4.84851 6.25475 4.64615C6.62942 4.58088 6.91164 4.39469 6.98693 4.01009ZM5.67675 5.39807C5.49954 5.93604 4.30058 5.64521 3.91187 5.57229L4.22676 4.61863C4.61547 4.69193 5.86196 4.83703 5.67675 5.39807ZM5.85412 4.00232C5.69243 4.49167 4.69452 4.24305 4.37081 4.18209L4.6563 3.31716C4.98001 3.37811 6.0225 3.49187 5.85412 4.00232Z" fill="white"/>
<path d="M13.7672 2.72281C14.1482 2.72281 14.4773 2.7882 14.7539 2.91659C15.0319 3.04624 15.2612 3.2209 15.4451 3.44055C15.6266 3.66133 15.7617 3.91938 15.8489 4.21511C15.9355 4.51168 15.979 4.83048 15.979 5.17177C15.979 5.69602 15.8787 6.19129 15.6762 6.65816C15.4738 7.12574 15.1991 7.53129 14.8497 7.87723C14.5005 8.22274 14.0883 8.49513 13.6129 8.69636C13.1382 8.89773 12.6222 8.99842 12.0681 8.99842C11.9965 8.99842 11.8705 8.99645 11.6926 8.99294C11.5146 8.98942 11.3101 8.97184 11.0811 8.94217C10.8506 8.91137 10.6069 8.86581 10.3495 8.80478C10.0923 8.74487 9.84798 8.66092 9.61792 8.55433L11.6751 0.274979L13.5176 0.00146484L12.781 2.93951C12.9387 2.87145 13.0976 2.81872 13.2561 2.78033C13.4148 2.7425 13.5851 2.72281 13.7672 2.72281ZM12.2217 7.59837C12.4992 7.59837 12.7606 7.53298 13.0063 7.40459C13.2526 7.27606 13.4652 7.10253 13.6433 6.88639C13.8214 6.66927 13.9623 6.42473 14.0651 6.1515C14.1679 5.87827 14.2198 5.59322 14.2198 5.29665C14.2198 4.93229 14.1563 4.64809 14.0296 4.44264C13.9029 4.23803 13.6684 4.13509 13.3279 4.13509C13.2163 4.13509 13.0726 4.15548 12.8944 4.1919C12.7156 4.23058 12.5555 4.31087 12.4121 4.43167L11.6278 7.55182C11.6751 7.55984 11.7169 7.56744 11.7526 7.57461C11.7875 7.58234 11.8262 7.58783 11.8646 7.59162C11.9053 7.59598 11.9518 7.59823 12.0081 7.59823C12.0643 7.59823 12.1346 7.59837 12.2217 7.59837Z" fill="#00051E"/>
<path d="M17.8905 8.83959H16.1306L17.6168 2.84945H19.3887L17.8905 8.83959ZM18.7469 2.11961C18.5012 2.11961 18.2785 2.04958 18.0809 1.90924C17.8817 1.76974 17.783 1.55501 17.783 1.2656C17.783 1.10642 17.8168 0.957072 17.8837 0.816167C17.9517 0.675543 18.0405 0.554468 18.1518 0.451532C18.263 0.349439 18.3917 0.267876 18.5379 0.206423C18.685 0.145955 18.8416 0.115723 19.0083 0.115723C19.2538 0.115723 19.4753 0.185754 19.6737 0.326096C19.8713 0.467141 19.9707 0.681873 19.9707 0.969729C19.9707 1.12948 19.9371 1.27938 19.8695 1.42001C19.8025 1.56063 19.7136 1.6817 19.6023 1.78464C19.4921 1.88687 19.3622 1.96816 19.2162 2.02905C19.069 2.0905 18.9131 2.11961 18.7469 2.11961Z" fill="#00051E"/>
<path d="M20.9305 1.35701L22.7737 1.0835L22.3211 2.84917H24.2952L23.9387 4.23824H21.9765L21.4539 6.33354C21.4057 6.50819 21.3784 6.67131 21.3708 6.82291C21.3621 6.9752 21.3822 7.10599 21.4298 7.21609C21.4771 7.32648 21.5621 7.41156 21.6854 7.47175C21.8081 7.53292 21.9839 7.56371 22.2144 7.56371C22.4042 7.56371 22.5892 7.54642 22.768 7.5121C22.9458 7.47835 23.1259 7.43139 23.3083 7.36994L23.4395 8.66873C23.2017 8.75226 22.9442 8.82412 22.6667 8.88459C22.3888 8.9459 22.0598 8.97543 21.6795 8.97543C21.1328 8.97543 20.7089 8.89767 20.4069 8.74284C20.1054 8.58689 19.8922 8.37385 19.7646 8.10413C19.6388 7.8354 19.5826 7.52561 19.5983 7.17658C19.6146 6.82671 19.6696 6.45898 19.7646 6.0717L20.9305 1.35701Z" fill="#00051E"/>
<path d="M24.2173 6.44797C24.2173 5.93202 24.3045 5.44547 24.4788 4.98999C24.6527 4.53409 24.9034 4.13542 25.2285 3.79328C25.5526 3.45283 25.9474 3.18311 26.412 2.98512C26.8745 2.78824 27.3923 2.68896 27.963 2.68896C28.3202 2.68896 28.6392 2.72131 28.9199 2.78614C29.2018 2.85153 29.4568 2.93604 29.6875 3.04207L29.0805 4.36393C28.922 4.30234 28.7574 4.24806 28.5872 4.19884C28.4169 4.14864 28.209 4.12445 27.9631 4.12445C27.3757 4.12445 26.9113 4.31837 26.5657 4.70494C26.2215 5.0918 26.0481 5.61253 26.0481 6.26573C26.0481 6.65286 26.1353 6.96589 26.3103 7.20537C26.4844 7.44486 26.8061 7.56396 27.2731 7.56396C27.5036 7.56396 27.726 7.5409 27.939 7.4959C28.1537 7.45034 28.3432 7.39296 28.5101 7.32518L28.6416 8.68023C28.419 8.76292 28.1735 8.83759 27.9042 8.90298C27.6344 8.96612 27.3132 8.99889 26.9407 8.99889C26.449 8.99889 26.0328 8.92998 25.6923 8.79428C25.3517 8.65647 25.0703 8.47352 24.8486 8.24177C24.6257 8.00946 24.4657 7.7382 24.3667 7.42686C24.2678 7.1158 24.2173 6.78898 24.2173 6.44797Z" fill="#00051E"/>
<path d="M32.0359 8.99889C31.6159 8.99889 31.2511 8.93757 30.9416 8.81621C30.633 8.69486 30.3774 8.52456 30.1752 8.30378C29.9727 8.08413 29.8212 7.82383 29.7174 7.52388C29.6136 7.22407 29.5637 6.89206 29.5637 6.52827C29.5637 6.07195 29.6402 5.61576 29.7948 5.16085C29.9487 4.70494 30.177 4.29531 30.4791 3.93124C30.7789 3.5666 31.1487 3.26847 31.5842 3.03602C32.0192 2.80512 32.5195 2.68896 33.0816 2.68896C33.494 2.68896 33.8569 2.75042 34.1706 2.87177C34.4829 2.99285 34.7401 3.16455 34.9435 3.38421C35.1446 3.60499 35.2974 3.86416 35.4002 4.16453C35.5037 4.46378 35.5548 4.79663 35.5548 5.16071C35.5548 5.61562 35.4793 6.07181 35.3296 6.52813C35.1797 6.9822 34.9573 7.39283 34.6636 7.75774C34.3706 8.12182 34.0041 8.4198 33.564 8.65127C33.1244 8.88273 32.6147 8.99889 32.0359 8.99889ZM32.9155 4.12459C32.6546 4.12459 32.424 4.19715 32.2265 4.34045C32.0283 4.48543 31.8618 4.66768 31.7276 4.88747C31.592 5.10825 31.4914 5.349 31.4234 5.6107C31.356 5.87297 31.323 6.12089 31.323 6.35643C31.323 6.73654 31.387 7.03255 31.5128 7.24559C31.6404 7.45751 31.8696 7.5641 32.2027 7.5641C32.4645 7.5641 32.694 7.49211 32.8926 7.34726C33.0896 7.2034 33.2563 7.02101 33.3915 6.8008C33.5263 6.58114 33.6277 6.3397 33.6957 6.07757C33.7622 5.81615 33.7961 5.56683 33.7961 5.3317C33.7961 4.95258 33.7324 4.65587 33.6054 4.4431C33.4785 4.23118 33.2483 4.12459 32.9155 4.12459Z" fill="#00051E"/>
<path d="M37.473 8.83959H35.7117L37.1979 2.84945H38.9707L37.473 8.83959ZM38.3281 2.11961C38.0826 2.11961 37.86 2.04958 37.6627 1.90924C37.4645 1.76974 37.3649 1.55501 37.3649 1.2656C37.3649 1.10642 37.3992 0.957072 37.4663 0.816167C37.5333 0.675543 37.6228 0.554468 37.734 0.451532C37.8446 0.349439 37.9745 0.267876 38.1205 0.206423C38.2667 0.145955 38.4232 0.115723 38.5894 0.115723C38.8354 0.115723 39.0577 0.185754 39.2556 0.326096C39.4537 0.467141 39.5537 0.681873 39.5537 0.969729C39.5537 1.12948 39.5181 1.27938 39.4516 1.42001C39.3851 1.56063 39.2957 1.6817 39.1849 1.78464C39.0733 1.88687 38.945 1.96816 38.7987 2.02905C38.6513 2.0905 38.4951 2.11961 38.3281 2.11961Z" fill="#00051E"/>
<path d="M40.2388 3.12191C40.3724 3.0845 40.5216 3.0395 40.6838 2.99057C40.8466 2.94163 41.0286 2.89607 41.2317 2.85501C41.4327 2.81268 41.6596 2.77837 41.909 2.75179C42.1584 2.72465 42.4427 2.71143 42.7585 2.71143C43.6866 2.71143 44.3264 2.97032 44.6797 3.48655C45.0326 4.00278 45.0937 4.70927 44.8647 5.60476L44.0551 8.8391H42.2837L43.0683 5.67282C43.1161 5.4751 43.1537 5.28399 43.1814 5.09725C43.2095 4.91219 43.2079 4.74906 43.1751 4.60788C43.1439 4.46838 43.0702 4.35419 42.9558 4.26574C42.8397 4.17869 42.6642 4.13496 42.4262 4.13496C42.1968 4.13496 41.9633 4.15859 41.725 4.20415L40.5715 8.83896H38.7993L40.2388 3.12191Z" fill="#00051E"/>
</svg>
