<svg width="44" height="45" viewBox="0 0 44 45" fill="none" xmlns="http://www.w3.org/2000/svg">
<g clip-path="url(#clip0_530_885)">
<path d="M43.3181 11.366C42.9489 10.8728 42.4288 10.4944 41.7584 10.2301C41.7942 10.8469 41.7505 11.3489 41.627 11.7368L33.7006 37.8146C33.5594 38.2725 33.251 38.6379 32.7759 38.911C32.3002 39.1843 31.8071 39.3208 31.2963 39.3208H6.90935C4.79565 39.3208 3.52762 38.7052 3.10469 37.4713C2.92858 36.9957 2.93747 36.6172 3.13135 36.3354C3.32495 36.071 3.65959 35.9385 4.13545 35.9385H27.0957C28.7339 35.9385 29.8655 35.6345 30.491 35.0268C31.1168 34.4191 31.7463 33.067 32.38 30.9712L39.6195 7.03297C40.0069 5.72958 39.8485 4.58454 39.1438 3.59839C38.4391 2.61225 37.4352 2.1189 36.1317 2.1189H16.0252C15.7962 2.1189 15.3469 2.19793 14.6776 2.35655L14.7038 2.27705C14.2106 2.17155 13.7922 2.12325 13.4488 2.13167C13.1054 2.14083 12.7883 2.24198 12.4977 2.43604C12.2071 2.62983 11.9735 2.83657 11.7975 3.05664C11.6214 3.2769 11.4494 3.55878 11.2822 3.90212C11.1152 4.24592 10.9741 4.56307 10.8596 4.85366C10.7451 5.14424 10.6129 5.45269 10.4634 5.77891C10.3135 6.10475 10.1686 6.37332 10.0275 6.58459C9.92174 6.72554 9.77228 6.91044 9.57831 7.13948C9.3848 7.36844 9.22618 7.57111 9.10291 7.74722C8.97974 7.92333 8.90024 8.08186 8.86526 8.22289C8.83028 8.38124 8.84768 8.61463 8.9181 8.92308C8.98843 9.23107 9.01499 9.45548 8.99713 9.59652C8.9268 10.2658 8.68452 11.1155 8.27076 12.1463C7.857 13.1769 7.48229 13.9213 7.14774 14.379C7.07732 14.4669 6.88371 14.6651 6.56657 14.9735C6.24942 15.2817 6.05573 15.55 5.98549 15.779C5.91497 15.867 5.91052 16.1137 5.97216 16.5188C6.03379 16.9241 6.0561 17.2057 6.03833 17.3643C5.96753 17.9633 5.74774 18.7558 5.37766 19.7424C5.00758 20.7286 4.63787 21.539 4.26778 22.173C4.21513 22.2786 4.06558 22.481 3.81867 22.7808C3.57232 23.0803 3.4223 23.327 3.36955 23.5202C3.33439 23.6611 3.33902 23.9078 3.38288 24.26C3.42665 24.6122 3.4223 24.8763 3.36955 25.0523C3.2288 25.7212 2.96449 26.5275 2.57692 27.47C2.18944 28.4119 1.79307 29.2187 1.38764 29.8874C1.28232 30.0638 1.13666 30.271 0.951944 30.5084C0.766949 30.7459 0.621748 30.9531 0.515971 31.1291C0.410379 31.3052 0.33986 31.4901 0.304601 31.684C0.287018 31.7898 0.31367 31.9615 0.384096 32.1996C0.454429 32.437 0.480989 32.6264 0.463129 32.7678C0.44536 33.0141 0.410379 33.3404 0.357536 33.7457C0.304601 34.1504 0.278041 34.3879 0.278041 34.4582C-0.109439 35.5154 -0.0920409 36.634 0.330976 37.8147C0.824234 39.1878 1.70034 40.3467 2.95977 41.2888C4.21929 42.2314 5.52693 42.702 6.88344 42.702H31.2706C32.4151 42.702 33.4941 42.3188 34.507 41.553C35.5198 40.7866 36.1938 39.8403 36.5279 38.7122L43.7935 14.7747C44.1815 13.5061 44.0231 12.3701 43.3181 11.366ZM15.2059 11.4189L15.7609 9.72775C15.8312 9.49879 15.9764 9.30066 16.1967 9.13334C16.4169 8.9663 16.6416 8.88236 16.8706 8.88236H32.9351C33.1816 8.88236 33.3576 8.96593 33.4634 9.13334C33.5689 9.30075 33.5869 9.49879 33.5166 9.72775L32.9611 11.4189C32.8904 11.6479 32.7458 11.8456 32.525 12.0134C32.3045 12.1804 32.0803 12.264 31.8514 12.264H15.7873C15.5406 12.264 15.3646 12.1807 15.2588 12.0134C15.1531 11.8456 15.1356 11.6479 15.2059 11.4189ZM13.0131 18.1828L13.568 16.492C13.6383 16.263 13.7837 16.0649 14.0037 15.8975C14.224 15.7301 14.4484 15.6466 14.6776 15.6466H30.7417C30.9884 15.6466 31.1648 15.7299 31.2703 15.8975C31.3758 16.065 31.3934 16.263 31.3228 16.492L30.7679 18.1828C30.6977 18.4118 30.5523 18.6101 30.3322 18.7772C30.1117 18.9446 29.8876 19.0282 29.6582 19.0282H13.5942C13.3477 19.0282 13.1716 18.9449 13.066 18.7772C12.9601 18.6101 12.9426 18.4118 13.0131 18.1828Z" fill="#F28705"/>
</g>
<defs>
<clipPath id="clip0_530_885">
<rect width="44.0001" height="44" fill="white" transform="translate(0 0.410156)"/>
</clipPath>
</defs>
</svg>
