<svg width="18" height="18" viewBox="0 0 18 18" fill="none" xmlns="http://www.w3.org/2000/svg">
<g clip-path="url(#clip0_530_1220)">
<path fill-rule="evenodd" clip-rule="evenodd" d="M6.68592 6.68592V16.4574H16.4574V6.68592H6.68592ZM5.14307 6.53164C5.14307 5.76475 5.76475 5.14307 6.53164 5.14307H16.6116C17.3786 5.14307 18.0002 5.76478 18.0002 6.53164V16.6116C18.0002 17.3786 17.3786 18.0002 16.6116 18.0002H6.53164C5.76478 18.0002 5.14307 17.3786 5.14307 16.6116V6.53164Z" fill="#219653"/>
<path fill-rule="evenodd" clip-rule="evenodd" d="M0 1.38857C0 0.621685 0.621685 0 1.38857 0H11.4686C12.2355 0 12.8571 0.62171 12.8571 1.38857V5.91429C12.8571 6.34033 12.5118 6.68571 12.0857 6.68571C11.6597 6.68571 11.3143 6.34033 11.3143 5.91429V1.54286H1.54286V11.3143H5.91429C6.34033 11.3143 6.68571 11.6597 6.68571 12.0857C6.68571 12.5118 6.34033 12.8571 5.91429 12.8571H1.38857C0.62171 12.8571 0 12.2355 0 11.4686V1.38857Z" fill="#219653"/>
</g>
<defs>
<clipPath id="clip0_530_1220">
<rect width="18" height="18" fill="white"/>
</clipPath>
</defs>
</svg>
