<svg width="64" height="64" viewBox="0 0 64 64" fill="none" xmlns="http://www.w3.org/2000/svg">
<g clip-path="url(#clip0_530_517)">
<path d="M35.1352 8.95511C33.143 8.64553 31.2656 10.0127 30.9492 12.0078C30.7983 12.9746 31.0327 13.9419 31.6093 14.731C32.186 15.5205 33.0361 16.0381 34.0029 16.1885C34.1933 16.2183 34.3828 16.2325 34.5698 16.2325C36.3418 16.2325 37.9038 14.9419 38.186 13.1397C38.4966 11.149 37.1299 9.27249 35.1391 8.95608C35.1377 8.95559 35.1367 8.95559 35.1352 8.95511ZM35.7187 12.7544C35.6201 13.3868 35.0224 13.8203 34.3877 13.7212C34.0796 13.6734 33.8091 13.5088 33.626 13.2578C33.4428 13.0074 33.3686 12.7002 33.416 12.396C33.5073 11.8208 34.0063 11.4087 34.5708 11.4087C34.6294 11.4087 34.6889 11.4131 34.749 11.4224C35.3823 11.524 35.8174 12.1216 35.7187 12.7544Z" fill="#F28705"/>
<path d="M39.1813 21.4896C39.028 22.4535 39.2604 23.4193 39.8356 24.2103C40.4128 25.0033 41.2633 25.5228 42.2316 25.6742C42.4216 25.704 42.61 25.7186 42.797 25.7182C44.5666 25.7182 46.131 24.4286 46.4177 22.6254C46.5685 21.6591 46.3342 20.6918 45.758 19.9012C45.1813 19.1102 44.3307 18.5917 43.3634 18.4413H43.3639C41.3683 18.1302 39.4919 19.4994 39.1813 21.4896ZM43.7404 21.3724C43.924 21.6244 43.9982 21.9325 43.9509 22.2367C43.8498 22.8705 43.2507 23.3051 42.6164 23.2069C42.3092 23.1591 42.0387 22.9935 41.8551 22.7411C41.673 22.4906 41.5993 22.1859 41.6481 21.8783C41.738 21.3051 42.2345 20.8944 42.7985 20.8944C42.8581 20.8944 42.9186 20.8988 42.9792 20.9086C43.2863 20.9564 43.5568 21.121 43.7404 21.3724Z" fill="#F28705"/>
<path d="M47.8237 34.7021C48.4004 35.4926 49.2509 36.0117 50.2177 36.1621C50.4087 36.1923 50.6001 36.207 50.79 36.207C51.559 36.207 52.3061 35.9648 52.9399 35.5029C53.7314 34.9262 54.25 34.0766 54.4008 33.1103C54.5517 32.1449 54.3173 31.1782 53.7407 30.3881C53.1635 29.5981 52.3134 29.0795 51.3466 28.9286C49.3515 28.6176 47.4756 29.9848 47.164 31.9775C47.0132 32.9443 47.2475 33.9116 47.8237 34.7021ZM49.6313 32.3632C49.7207 31.7914 50.2173 31.3823 50.7802 31.3823C50.8403 31.3823 50.9008 31.3866 50.9614 31.3964H50.9624C51.2695 31.4443 51.54 31.6093 51.7236 31.8608C51.9067 32.1117 51.9814 32.4184 51.9336 32.725C51.8857 33.0317 51.7207 33.3017 51.4692 33.4848C51.2177 33.6684 50.9096 33.7431 50.6025 33.6948C50.2949 33.6469 50.0249 33.4824 49.8413 33.2309C49.6577 32.9789 49.583 32.6708 49.6313 32.3632Z" fill="#F28705"/>
<path d="M62.7638 7.91952C61.753 6.53378 60.2681 5.62557 58.5831 5.36141L51.5635 4.26376C50.8839 4.15731 50.2432 4.62313 50.1373 5.30477C50.0303 5.98593 50.4966 6.6246 51.1778 6.73104L58.1969 7.8287C59.2232 7.98935 60.1285 8.54452 60.7467 9.3912C61.3643 10.2379 61.6158 11.2686 61.4547 12.2936L57.4151 38.067C57.1134 39.9923 55.4439 41.3722 53.5518 41.3722C53.3531 41.3722 53.1519 41.3571 52.9493 41.3253L38.9239 39.129V30.3824C38.9239 26.8512 36.0494 23.9781 32.5162 23.9781H25.2832L27.9351 7.05087C28.0957 6.0245 28.6519 5.11923 29.5005 4.50106C30.3477 3.88436 31.378 3.63387 32.4039 3.79598L41.3687 5.20516C42.0489 5.3121 42.689 4.84676 42.796 4.16561C42.9029 3.48446 42.4376 2.8453 41.7564 2.73836L32.7925 1.32918C31.108 1.06307 29.4175 1.47274 28.0303 2.4825C26.6421 3.49325 25.7325 4.97811 25.4678 6.66415L22.7559 23.9786H6.40772C2.87452 23.9781 0 26.8512 0 30.3824V56.4674C0 60.0007 2.87452 62.8747 6.40772 62.8747H32.5162C36.0494 62.8747 38.9239 60.0007 38.9239 56.4674V41.6569L52.5645 43.7926C52.8966 43.8444 53.2261 43.8693 53.5518 43.8693C56.6524 43.8693 59.3878 41.608 59.8824 38.4537L63.922 12.6808C64.1861 10.9962 63.775 9.30527 62.7638 7.91952ZM36.4268 56.4674C36.4268 58.6232 34.6724 60.3776 32.5162 60.3776H6.40772C4.25147 60.3776 2.49707 58.6232 2.49707 56.4674V30.3824C2.49707 28.2281 4.25147 26.4757 6.40772 26.4757H23.8208H23.8257H23.8296H32.5162C34.6724 26.4757 36.4263 28.2281 36.4263 30.3824V56.4674H36.4268Z" fill="#F28705"/>
<path d="M9.90528 31.1519C7.88623 31.1519 6.24365 32.7935 6.24365 34.8115C6.24365 36.8296 7.88623 38.4717 9.90528 38.4717C11.9263 38.4717 13.5703 36.8296 13.5703 34.8115C13.5703 32.7935 11.9263 31.1519 9.90528 31.1519ZM9.90528 35.9741C9.26319 35.9741 8.74073 35.4527 8.74073 34.8115C8.74073 34.1709 9.26319 33.6489 9.90528 33.6489C10.5493 33.6489 11.0732 34.1709 11.0732 34.8115C11.0732 35.4527 10.5493 35.9741 9.90528 35.9741Z" fill="#F28705"/>
<path d="M19.5044 39.2495C17.4854 39.2495 15.8428 40.8916 15.8428 42.9092C15.8428 44.9292 17.4854 46.5728 19.5044 46.5728C21.5234 46.5728 23.166 44.9297 23.166 42.9092C23.166 40.8916 21.5234 39.2495 19.5044 39.2495ZM19.5044 44.0757C18.8623 44.0757 18.3398 43.5527 18.3398 42.9097C18.3398 42.2686 18.8623 41.7471 19.5044 41.7471C20.1465 41.7471 20.669 42.2686 20.669 42.9097C20.669 43.5527 20.1465 44.0757 19.5044 44.0757Z" fill="#F28705"/>
<path d="M29.0151 31.1904C26.9961 31.1904 25.3535 32.8325 25.3535 34.8506C25.3535 36.8687 26.9961 38.5103 29.0151 38.5103C31.0361 38.5103 32.6802 36.8687 32.6802 34.8506C32.6802 32.8325 31.0356 31.1904 29.0151 31.1904ZM29.0151 36.0132C28.373 36.0132 27.8506 35.4917 27.8506 34.8506C27.8506 34.2095 28.373 33.688 29.0151 33.688C29.6592 33.688 30.1831 34.2095 30.1831 34.8506C30.1831 35.4917 29.6592 36.0132 29.0151 36.0132Z" fill="#F28705"/>
<path d="M9.90528 48.3389C7.88623 48.3389 6.24365 49.9805 6.24365 51.9985C6.24365 54.0166 7.88623 55.6587 9.90528 55.6587C11.9263 55.6587 13.5703 54.0166 13.5703 51.9985C13.5703 49.9805 11.9263 48.3389 9.90528 48.3389ZM9.90528 53.1611C9.26319 53.1611 8.74073 52.6396 8.74073 51.9985C8.74073 51.3574 9.26319 50.8359 9.90528 50.8359C10.5493 50.8359 11.0732 51.3574 11.0732 51.9985C11.0732 52.6396 10.5493 53.1611 9.90528 53.1611Z" fill="#F28705"/>
<path d="M29.0151 48.3779C26.9961 48.3779 25.3535 50.0195 25.3535 52.0376C25.3535 54.0557 26.9961 55.6978 29.0151 55.6978C31.0361 55.6978 32.6802 54.0557 32.6802 52.0376C32.6802 50.0195 31.0356 48.3779 29.0151 48.3779ZM29.0151 53.2002C28.373 53.2002 27.8506 52.6787 27.8506 52.0376C27.8506 51.3965 28.373 50.875 29.0151 50.875C29.6592 50.875 30.1831 51.3965 30.1831 52.0376C30.1831 52.6787 29.6592 53.2002 29.0151 53.2002Z" fill="#F28705"/>
<path d="M46.293 5.96772L46.3145 5.97114C46.3839 5.98286 46.4527 5.98872 46.5211 5.98872C47.1207 5.98872 47.6495 5.55561 47.751 4.94526C47.8643 4.26509 47.4049 3.62153 46.7252 3.50825L46.7037 3.50483C46.022 3.39106 45.38 3.85102 45.2667 4.5312C45.1534 5.21089 45.6129 5.85444 46.293 5.96772Z" fill="#F28705"/>
</g>
<defs>
<clipPath id="clip0_530_517">
<rect width="64" height="64" fill="white"/>
</clipPath>
</defs>
</svg>
