<svg width="43" height="10" viewBox="0 0 43 10" fill="none" xmlns="http://www.w3.org/2000/svg">
<path d="M7.28651 0C3.25339 0 0.000488281 1.88913 0.000488281 4.22974C0.000488281 5.22777 0.588652 6.13076 1.58494 6.86741C1.09279 6.26145 0.816718 5.59611 0.816718 4.88322C0.816718 2.45944 4.00961 0.487136 7.9347 0.487136C10.4674 0.487136 12.7 1.30694 13.9604 2.5426C12.8441 1.04556 10.2633 0 7.28651 0Z" fill="#8CC23C"/>
<path d="M6.65043 5.42981C6.9505 5.42981 7.19058 5.37039 7.37062 5.2397C7.57467 5.109 7.68271 4.90702 7.68271 4.64563C7.68271 4.15849 7.52666 3.71888 7.20258 3.31492C6.87849 2.91096 6.47037 2.60205 5.97824 2.38818C5.63015 2.24561 5.24604 2.17432 4.81392 2.17432C3.94968 2.17432 3.24148 2.44759 2.68931 3.00601C2.13716 3.56444 1.86108 4.22978 1.86108 5.00207C1.86108 5.78623 2.14918 6.45159 2.72532 6.98624C3.30149 7.52091 4.02168 7.79418 4.89794 7.79418C5.36607 7.79418 5.81018 7.73478 6.23031 7.60409C6.73445 7.44962 7.10654 7.23576 7.33461 6.9506C7.46666 6.79615 7.52667 6.64169 7.52667 6.48724C7.52667 6.08328 7.2986 5.86941 6.83047 5.86941C6.73445 5.86941 6.47037 5.95257 6.05025 6.13079C5.64214 6.29713 5.28205 6.3803 4.99395 6.3803C4.63386 6.3803 4.33377 6.29713 4.0937 6.13079C3.85364 5.96446 3.70961 5.73872 3.6736 5.42981H6.65043ZM4.04569 3.71888C4.24975 3.55255 4.51383 3.4575 4.82591 3.4575C5.126 3.4575 5.39006 3.54066 5.60613 3.71888C5.8222 3.89711 5.94223 4.12284 5.95423 4.39613H3.64959C3.6976 4.12284 3.82964 3.89711 4.04569 3.71888Z" fill="#033564"/>
<path d="M8.65501 6.97421C9.19516 7.50886 9.90336 7.78212 10.7796 7.78212C11.3078 7.78212 11.7519 7.69897 12.1 7.5445C12.5921 7.31876 12.8322 7.05736 12.8322 6.73658C12.8322 6.54647 12.7722 6.39202 12.6401 6.24944C12.5081 6.11875 12.352 6.04746 12.148 6.04746C12.0159 6.04746 11.8359 6.08311 11.6318 6.16627C11.4278 6.24944 11.1997 6.28509 10.9476 6.28509C10.5275 6.28509 10.2034 6.1544 9.97538 5.893C9.77131 5.65537 9.67529 5.34646 9.67529 4.95437C9.67529 4.58605 9.77131 4.27714 9.96337 4.02763C10.1794 3.75436 10.4915 3.62367 10.8876 3.62367C11.1277 3.62367 11.3678 3.65931 11.5838 3.74247C11.7999 3.82565 11.9799 3.86129 12.124 3.86129C12.328 3.86129 12.5081 3.80189 12.6401 3.6712C12.7722 3.54049 12.8442 3.38605 12.8442 3.19593C12.8442 2.82762 12.6041 2.55435 12.124 2.37613C11.7639 2.24544 11.3558 2.18604 10.8756 2.18604C9.96336 2.18604 9.23117 2.44742 8.69102 2.9702C8.13887 3.49298 7.86279 4.17021 7.86279 4.99001C7.87479 5.79795 8.12685 6.45142 8.65501 6.97421Z" fill="#033564"/>
<path d="M13.7084 6.98624C14.2725 7.54467 14.9928 7.81794 15.8689 7.81794C16.7453 7.81794 17.4655 7.54467 18.0296 6.99813C18.5697 6.46348 18.8339 5.79812 18.8339 5.00207C18.8339 4.19413 18.5578 3.5169 18.0175 2.98224C17.4774 2.44759 16.7572 2.17432 15.8689 2.17432C14.9928 2.17432 14.2847 2.44759 13.7325 2.99412C13.1803 3.54066 12.9042 4.20602 12.9042 5.01396C12.8922 5.78623 13.1683 6.45159 13.7084 6.98624ZM14.9687 4.07533C15.1727 3.79017 15.4729 3.65948 15.857 3.65948C16.2291 3.65948 16.5292 3.80206 16.7332 4.0872C16.9253 4.33671 17.0093 4.63376 17.0093 4.99018C17.0093 5.35852 16.9133 5.65554 16.7332 5.89317C16.5292 6.17832 16.2291 6.3209 15.8451 6.3209C15.4729 6.3209 15.1727 6.17832 14.9687 5.89317C14.7767 5.64366 14.6927 5.34663 14.6927 4.99018C14.7048 4.62187 14.7888 4.32484 14.9687 4.07533Z" fill="#033564"/>
<path d="M21.2825 2.0317H22.0627C22.8908 2.0317 23.299 2.34062 23.299 2.95844C23.299 3.58816 22.8908 3.90896 22.0627 3.90896H21.2825V2.0317ZM21.2825 6.58225V5.37035H22.4948C23.3471 5.37035 24.0192 5.15648 24.5112 4.74065C25.0034 4.31292 25.2436 3.71885 25.2436 2.95844C25.2436 2.18617 24.9675 1.58021 24.4272 1.15249C23.9112 0.748517 23.215 0.534668 22.3507 0.534668H20.7303C20.2622 0.534668 19.938 0.617827 19.758 0.784162C19.5779 0.950497 19.4819 1.24754 19.4819 1.67526V6.58225C19.4819 7.35454 19.7821 7.73475 20.3821 7.73475C20.9824 7.73475 21.2825 7.35454 21.2825 6.58225Z" fill="#8CC23C"/>
<path d="M27.4402 4.11114C27.6442 3.84974 27.9322 3.70717 28.2923 3.70717C28.6645 3.70717 28.9405 3.83787 29.1446 4.11114C29.3127 4.34877 29.4086 4.63392 29.4086 4.97848C29.4086 5.32304 29.3246 5.62007 29.1446 5.85769C28.9405 6.13096 28.6645 6.26165 28.2923 6.26165C27.9203 6.26165 27.6323 6.13096 27.4281 5.85769C27.2481 5.62007 27.1641 5.32304 27.1641 4.97848C27.1641 4.63392 27.26 4.34877 27.4402 4.11114ZM30.3209 7.73495C30.8971 7.73495 31.1852 7.35474 31.1852 6.58245V3.41014C31.1852 2.64973 30.8971 2.26953 30.3209 2.26953C29.9608 2.26953 29.6847 2.43587 29.4807 2.76856C29.1206 2.38835 28.6524 2.19824 28.0762 2.19824C27.2722 2.19824 26.6119 2.49529 26.0957 3.07747C25.6037 3.62401 25.3635 4.26559 25.3635 5.00224C25.3635 5.727 25.6037 6.36858 26.0718 6.90325C26.5879 7.48544 27.236 7.78246 28.0283 7.78246C28.6524 7.78246 29.1446 7.58048 29.5048 7.18839C29.6488 7.54484 29.9368 7.73495 30.3209 7.73495Z" fill="#8CC23C"/>
<path d="M35.2544 2.88736L34.1861 5.4062L33.1898 3.02994C33.0818 2.76856 32.9858 2.59033 32.9018 2.49529C32.7576 2.34082 32.5536 2.26953 32.3015 2.26953C32.0614 2.26953 31.8574 2.34082 31.6894 2.49529C31.5213 2.64973 31.4492 2.82796 31.4492 3.05369C31.4492 3.20816 31.4854 3.35074 31.5453 3.49332L33.3098 7.21217L32.5896 8.62604C32.4936 8.82802 32.4455 9.00625 32.4455 9.16069C32.4455 9.39832 32.5296 9.57654 32.6857 9.71912C32.8416 9.84981 33.0577 9.9211 33.3098 9.9211C33.6218 9.9211 33.8739 9.70723 34.0781 9.29139L36.7548 3.58836C36.8508 3.38638 36.8988 3.20816 36.8988 3.04182C36.8988 2.5428 36.6108 2.29329 36.0346 2.29329C35.6864 2.25766 35.4343 2.47151 35.2544 2.88736Z" fill="#8CC23C"/>
<path d="M41.196 6.19004H39.4675L41.7962 3.493C42.0362 3.21973 42.1563 2.99397 42.1563 2.80388C42.1563 2.59001 42.0602 2.45932 41.8802 2.41179C41.7001 2.35239 41.424 2.32861 41.04 2.32861H38.2312C37.487 2.32861 37.1149 2.56624 37.1149 3.04151C37.1149 3.52864 37.487 3.76627 38.2191 3.76627H39.7317L37.3189 6.57025C37.1509 6.77223 37.0549 6.97422 37.0549 7.1762C37.0549 7.497 37.367 7.66334 37.9792 7.66334H41.1719C41.9043 7.66334 42.2763 7.42571 42.2763 6.93858C42.2882 6.43955 41.9162 6.19004 41.196 6.19004Z" fill="#8CC23C"/>
</svg>
