<svg width="32" height="33" viewBox="0 0 32 33" fill="none" xmlns="http://www.w3.org/2000/svg">
<path d="M26.6667 4.41016H5.33333C4.97971 4.41016 4.64057 4.55063 4.39052 4.80068C4.14048 5.05073 4 5.38987 4 5.74349V27.0768C4 27.4304 4.14048 27.7696 4.39052 28.0196C4.64057 28.2697 4.97971 28.4102 5.33333 28.4102H16.82V19.1302H13.7027V15.4968H16.82V12.8302C16.82 9.73016 18.7133 8.04082 21.4867 8.04082C22.4187 8.03816 23.352 8.08616 24.28 8.18349V11.4102H22.3667C20.8627 11.4102 20.5693 12.1275 20.5693 13.1768V15.4902H24.1653L23.6987 19.1235H20.568V28.4102H26.6667C27.0203 28.4102 27.3594 28.2697 27.6095 28.0196C27.8595 27.7696 28 27.4304 28 27.0768V5.74349C28 5.38987 27.8595 5.05073 27.6095 4.80068C27.3594 4.55063 27.0203 4.41016 26.6667 4.41016Z" fill="white"/>
</svg>
