<svg width="30" height="30" viewBox="0 0 30 30" fill="none" xmlns="http://www.w3.org/2000/svg">
<rect width="30" height="30" rx="15" fill="#EB5757"/>
<path d="M24.1667 14.1667C23.7067 14.1667 23.3333 14.54 23.3333 15C23.3333 19.595 19.595 23.3333 15 23.3333C10.405 23.3333 6.66667 19.595 6.66667 15C6.66667 10.405 10.405 6.66667 15 6.66667C17.2371 6.66667 19.3371 7.54083 20.9133 9.12833C21.2375 9.45458 21.7654 9.45667 22.0917 9.1325C22.4183 8.80833 22.42 8.28042 22.0958 7.95375C20.2046 6.04917 17.6842 5 15 5C9.48583 5 5 9.48583 5 15C5 20.5142 9.48583 25 15 25C20.5137 25 25 20.5142 25 15C25 14.54 24.6267 14.1667 24.1667 14.1667Z" fill="white"/>
<path d="M16.1785 15.0002L18.0894 13.0894C18.4148 12.764 18.4148 12.2365 18.0894 11.9111C17.764 11.5856 17.2365 11.5856 16.911 11.9111L15.0002 13.8219L13.0894 11.9111C12.7644 11.5856 12.2361 11.5856 11.9111 11.9111C11.5856 12.2365 11.5856 12.764 11.9111 13.0894L13.8219 15.0002L11.9111 16.9111C11.5856 17.2365 11.5856 17.764 11.9111 18.0894C12.0736 18.2523 12.2869 18.3336 12.5002 18.3336C12.7136 18.3336 12.9269 18.2523 13.0894 18.0894L15.0002 16.1786L16.911 18.0894C17.074 18.2523 17.2869 18.3336 17.5002 18.3336C17.7135 18.3336 17.9265 18.2523 18.0894 18.0894C18.4148 17.764 18.4148 17.2365 18.0894 16.9111L16.1785 15.0002Z" fill="white"/>
</svg>
