<svg width="32" height="32" viewBox="0 0 32 32" fill="none" xmlns="http://www.w3.org/2000/svg">
<g clip-path="url(#clip0_530_6039)">
<path d="M16.0013 32.0006C24.8374 32.0006 32.0006 24.8374 32.0006 16.0013C32.0006 7.16509 24.8374 0.00195312 16.0013 0.00195312C7.16509 0.00195312 0.00195312 7.16509 0.00195312 16.0013C0.00195312 24.8374 7.16509 32.0006 16.0013 32.0006Z" fill="white"/>
<path d="M31.0854 10.6651C31.0837 10.6601 31.0821 10.6558 31.0803 10.6512C29.0326 4.87732 23.7654 0.629321 17.4368 0.0654297C19.8855 1.40791 20.6007 5.66124 21.2273 10.6651C21.6552 14.0829 21.658 17.8489 21.2354 21.271C20.6141 26.3019 19.8959 30.5853 17.4368 31.9334C23.7768 31.3685 29.0516 27.1058 31.0913 21.3165C31.0966 21.3011 31.1011 21.2859 31.1067 21.271C31.6827 19.6201 31.9997 17.8472 31.9997 15.9999C31.9997 14.1284 31.6756 12.3337 31.0854 10.6651Z" fill="#D32027"/>
<path d="M22.0511 10.6654C21.4249 5.66148 19.8858 1.40821 17.4369 0.0657321C16.9632 0.0237798 16.4842 0 15.9997 0C9.03942 0 3.12022 4.44533 0.919304 10.6514C0.917548 10.656 0.915994 10.6603 0.914237 10.6654C0.324134 12.3339 0 14.1286 0 16.0001C0 17.8477 0.317041 19.6203 0.893025 21.2713C0.898362 21.2862 0.903158 21.3013 0.908428 21.3167C3.10076 27.5388 9.028 31.9997 15.9996 31.9997C16.4842 31.9997 16.9631 31.976 17.4368 31.9335C19.8959 30.5855 21.4379 26.3021 22.0592 21.2712C22.4819 17.8489 22.4791 14.0832 22.0511 10.6654Z" fill="#DB2727"/>
<path d="M18.7388 7.75H13.2371V24.2546H18.7388V7.75Z" fill="white"/>
<path d="M24.2412 13.252H7.73657V18.7537H24.2412V13.252Z" fill="white"/>
</g>
<defs>
<clipPath id="clip0_530_6039">
<rect width="32" height="32" fill="white"/>
</clipPath>
</defs>
</svg>
