<svg width="32" height="32" viewBox="0 0 32 32" fill="none" xmlns="http://www.w3.org/2000/svg">
<path d="M-7.69933e-05 16.0011C-7.73795e-05 24.837 7.16278 31.9999 15.9986 31.9999C24.8345 31.9999 31.9973 24.837 31.9973 16.0011C31.9973 7.16531 24.8345 0.00244109 15.9986 0.00244071C7.16278 0.00244032 -7.6607e-05 7.1653 -7.69933e-05 16.0011Z" fill="white"/>
<path d="M21.335 31.0843L21.335 21.2266C17.9172 21.6545 14.1514 21.6573 10.7294 21.2347L10.7294 31.1053C12.3803 31.6813 14.1531 31.9983 16.0003 31.9983C17.8718 31.9986 19.6665 31.6745 21.335 31.0843Z" fill="#D2D2D2"/>
<path d="M21.335 21.2266L21.335 31.0842C21.3401 31.0824 21.3444 31.0809 21.349 31.0791C27.1226 29.0315 31.3705 23.7647 31.9343 17.4365C30.5919 19.8851 26.3387 20.6003 21.335 21.2266Z" fill="#B90015"/>
<path d="M0.0675859 17.4355C0.632468 23.7753 4.89496 29.0498 10.684 31.0895C10.6994 31.0948 10.7146 31.0993 10.7295 31.1049L10.7295 21.2339C5.69878 20.6127 1.41555 19.8946 0.0675859 17.4355Z" fill="#138845"/>
<path d="M16.0003 -2.33184e-07C14.1529 -3.13939e-07 12.3803 0.317028 10.7294 0.89299L10.7294 22.0584C14.1517 22.481 17.9172 22.4782 21.335 22.0503L21.335 0.914202C19.6664 0.324054 17.8718 -1.51381e-07 16.0003 -2.33184e-07Z" fill="white"/>
<path d="M21.349 0.920593C21.3444 0.918837 21.3401 0.917283 21.3351 0.915527L21.3351 22.0516C26.3387 21.4254 30.5918 19.8864 31.9343 17.4375C31.9762 16.9638 32 16.4848 32 16.0003C32 9.0404 27.5548 3.12142 21.349 0.920593Z" fill="#CE1126"/>
<path d="M10.7295 22.0594L10.7295 0.894043C10.7146 0.89938 10.6994 0.904176 10.684 0.909445C4.46221 3.10169 0.00145018 9.02871 0.00144988 16C0.00144986 16.4846 0.0252268 16.9635 0.067651 17.4372C1.41555 19.8965 5.69878 21.4382 10.7295 22.0594Z" fill="#219653"/>
</svg>
