<svg width="32" height="32" viewBox="0 0 32 32" fill="none" xmlns="http://www.w3.org/2000/svg">
<path d="M16.0014 31.9998C24.8372 31.9998 32.0001 24.837 32.0001 16.0011C32.0001 7.1653 24.8372 0.00244141 16.0014 0.00244141C7.16555 0.00244141 0.00268555 7.1653 0.00268555 16.0011C0.00268555 24.837 7.16555 31.9998 16.0014 31.9998Z" fill="white"/>
<path d="M31.0843 10.665H21.2266C21.6545 14.0828 21.6573 17.8486 21.2347 21.2706H31.1053C31.6813 19.6197 31.9983 17.8469 31.9983 15.9997C31.9986 14.1282 31.6745 12.3335 31.0843 10.665Z" fill="#C90D0D"/>
<path d="M21.2266 10.6647H31.0842C31.0824 10.6596 31.0809 10.6554 31.0791 10.6508C29.0315 4.87713 23.7647 0.629299 17.4365 0.0654297C19.8851 1.40785 20.6003 5.66103 21.2266 10.6647Z" fill="#231D1D"/>
<path d="M17.4358 31.9324C23.7756 31.3675 29.0501 27.105 31.0897 21.316C31.0951 21.3006 31.0996 21.2854 31.1051 21.2705H21.2342C20.613 26.3012 19.8948 30.5845 17.4358 31.9324Z" fill="#E9BD02"/>
<path d="M0 15.9997C0 17.8471 0.317029 19.6197 0.89299 21.2706H22.0584C22.481 17.8483 22.4782 14.0828 22.0503 10.665H0.914202C0.324054 12.3336 0 14.1282 0 15.9997Z" fill="#DD0000"/>
<path d="M0.920594 10.651C0.918837 10.6556 0.917284 10.6599 0.915527 10.6649H22.0516C21.4254 5.66126 19.8864 1.40815 17.4375 0.0657296C16.9638 0.0237788 16.4848 0 16.0003 0C9.0404 0 3.12142 4.44516 0.920594 10.651Z" fill="black"/>
<path d="M22.0594 21.2705H0.894043C0.89938 21.2854 0.904176 21.3006 0.909445 21.316C3.10169 27.5378 9.02871 31.9985 16 31.9985C16.4846 31.9985 16.9635 31.9748 17.4372 31.9323C19.8965 30.5845 21.4382 26.3012 22.0594 21.2705Z" fill="#FFCE00"/>
</svg>
