<svg width="32" height="33" viewBox="0 0 32 33" fill="none" xmlns="http://www.w3.org/2000/svg">
<path d="M27.9294 11.4834C27.916 10.4736 27.7269 9.4738 27.3708 8.52877C27.0619 7.73164 26.5901 7.0077 25.9857 6.40321C25.3812 5.79872 24.6572 5.32697 23.8601 5.0181C22.9272 4.66791 21.9417 4.47855 20.9454 4.4581C19.6628 4.40077 19.2561 4.38477 16.0001 4.38477C12.7441 4.38477 12.3268 4.38477 11.0534 4.4581C10.0576 4.4787 9.07256 4.66806 8.14009 5.0181C7.34284 5.32675 6.61879 5.79843 6.01427 6.40294C5.40975 7.00746 4.93808 7.73151 4.62943 8.52877C4.27854 9.46094 4.08959 10.4462 4.07076 11.4421C4.01343 12.7261 3.99609 13.1328 3.99609 16.3888C3.99609 19.6448 3.99609 20.0608 4.07076 21.3354C4.09076 22.3328 4.27876 23.3168 4.62943 24.2514C4.9386 25.0484 5.41062 25.7722 6.01534 26.3765C6.62006 26.9807 7.34418 27.4522 8.14143 27.7608C9.07134 28.125 10.0566 28.3279 11.0548 28.3608C12.3388 28.4181 12.7454 28.4354 16.0014 28.4354C19.2574 28.4354 19.6748 28.4354 20.9481 28.3608C21.9443 28.3411 22.9299 28.1522 23.8628 27.8021C24.6597 27.4929 25.3834 27.021 25.9879 26.4166C26.5923 25.8121 27.0642 25.0884 27.3734 24.2914C27.7241 23.3581 27.9121 22.3741 27.9321 21.3754C27.9894 20.0928 28.0068 19.6861 28.0068 16.4288C28.0041 13.1728 28.0041 12.7594 27.9294 11.4834ZM15.9921 22.5461C12.5868 22.5461 9.82809 19.7874 9.82809 16.3821C9.82809 12.9768 12.5868 10.2181 15.9921 10.2181C17.6269 10.2181 19.1947 10.8675 20.3507 12.0235C21.5067 13.1795 22.1561 14.7473 22.1561 16.3821C22.1561 18.0169 21.5067 19.5847 20.3507 20.7407C19.1947 21.8967 17.6269 22.5461 15.9921 22.5461ZM22.4014 11.4274C21.6054 11.4274 20.9641 10.7848 20.9641 9.9901C20.9641 9.80143 21.0013 9.61462 21.0735 9.44031C21.1457 9.26601 21.2515 9.10763 21.3849 8.97422C21.5183 8.84082 21.6767 8.73499 21.851 8.66279C22.0253 8.59059 22.2121 8.55343 22.4008 8.55343C22.5894 8.55343 22.7762 8.59059 22.9506 8.66279C23.1249 8.73499 23.2832 8.84082 23.4166 8.97422C23.55 9.10763 23.6559 9.26601 23.7281 9.44031C23.8003 9.61462 23.8374 9.80143 23.8374 9.9901C23.8374 10.7848 23.1948 11.4274 22.4014 11.4274Z" fill="white"/>
<path d="M15.9918 20.3862C18.2031 20.3862 19.9958 18.5935 19.9958 16.3822C19.9958 14.1708 18.2031 12.3782 15.9918 12.3782C13.7804 12.3782 11.9878 14.1708 11.9878 16.3822C11.9878 18.5935 13.7804 20.3862 15.9918 20.3862Z" fill="white"/>
</svg>
