<svg width="32" height="33" viewBox="0 0 32 33" fill="none" xmlns="http://www.w3.org/2000/svg">
<path d="M26.6667 4.41016H5.33333C4.97971 4.41016 4.64057 4.55063 4.39052 4.80068C4.14048 5.05073 4 5.38987 4 5.74349V27.0768C4 27.4304 4.14048 27.7696 4.39052 28.0196C4.64057 28.2697 4.97971 28.4102 5.33333 28.4102H26.6667C27.0203 28.4102 27.3594 28.2697 27.6095 28.0196C27.8595 27.7696 28 27.4304 28 27.0768V5.74349C28 5.38987 27.8595 5.05073 27.6095 4.80068C27.3594 4.55063 27.0203 4.41016 26.6667 4.41016ZM11.1187 24.8595H7.556V13.4062H11.1187V24.8595ZM9.33733 11.8422C8.78993 11.8422 8.26494 11.6247 7.87786 11.2376C7.49079 10.8506 7.27333 10.3256 7.27333 9.77816C7.27333 9.23075 7.49079 8.70576 7.87786 8.31869C8.26494 7.93161 8.78993 7.71416 9.33733 7.71416C9.88474 7.71416 10.4097 7.93161 10.7968 8.31869C11.1839 8.70576 11.4013 9.23075 11.4013 9.77816C11.4013 10.3256 11.1839 10.8506 10.7968 11.2376C10.4097 11.6247 9.88474 11.8422 9.33733 11.8422ZM24.4507 24.8595H20.892V19.2902C20.892 17.9622 20.868 16.2542 19.0413 16.2542C17.188 16.2542 16.9067 17.7022 16.9067 19.1968V24.8608H13.3507V13.4075H16.764V14.9728H16.8133C17.2867 14.0728 18.4493 13.1235 20.1787 13.1235C23.784 13.1235 24.4493 15.4942 24.4493 18.5795V24.8595H24.4507Z" fill="white"/>
</svg>
