<svg width="23" height="19" viewBox="0 0 23 19" fill="none" xmlns="http://www.w3.org/2000/svg">
<path d="M4.05925 18.9563V17.6324C4.05925 17.126 3.77965 16.7943 3.29968 16.7943C3.05969 16.7943 2.79874 16.8817 2.61933 17.1697C2.47953 16.928 2.27915 16.7943 1.97859 16.7943C1.77821 16.7943 1.57783 16.8612 1.41939 17.1028V16.838H1V18.9563H1.41939V17.7866C1.41939 17.4113 1.5988 17.2339 1.8784 17.2339C2.15799 17.2339 2.29779 17.4319 2.29779 17.7866V18.9563H2.71719V17.7866C2.71719 17.4113 2.91756 17.2339 3.17619 17.2339C3.45579 17.2339 3.59558 17.4319 3.59558 17.7866V18.9563H4.05925ZM10.2803 16.838H9.59991V16.1979H9.18052V16.838H8.80073V17.2571H9.18052V18.2288C9.18052 18.7147 9.35993 19 9.8399 19C10.0193 19 10.2197 18.9332 10.3595 18.8458L10.2383 18.4473C10.1172 18.5347 9.97737 18.5578 9.87718 18.5578C9.6768 18.5578 9.59758 18.4242 9.59758 18.2057V17.2571H10.2779V16.838H10.2803ZM13.8405 16.7918C13.6005 16.7918 13.4397 16.9254 13.3395 17.1003V16.8355H12.9201V18.9537H13.3395V17.7609C13.3395 17.4087 13.4793 17.2082 13.7403 17.2082C13.8195 17.2082 13.9197 17.2314 14.0012 17.2519L14.1224 16.8098C14.0385 16.7918 13.9197 16.7918 13.8405 16.7918ZM8.46056 17.0129C8.26018 16.8586 7.98058 16.7918 7.68002 16.7918C7.20005 16.7918 6.88084 17.0566 6.88084 17.4756C6.88084 17.8278 7.12083 18.0283 7.54022 18.0925L7.7406 18.1157C7.95961 18.1594 8.08077 18.2262 8.08077 18.3368C8.08077 18.491 7.92 18.6015 7.64041 18.6015C7.36081 18.6015 7.13947 18.491 6.99967 18.3805L6.79929 18.7326C7.01831 18.91 7.31887 18.9974 7.61944 18.9974C8.17863 18.9974 8.50017 18.7095 8.50017 18.3136C8.50017 17.9383 8.23921 17.7404 7.84079 17.6735L7.64041 17.6504C7.461 17.6272 7.3212 17.5835 7.3212 17.4524C7.3212 17.2982 7.461 17.2108 7.68235 17.2108C7.92234 17.2108 8.16232 17.3213 8.28348 17.3882L8.46056 17.0129ZM19.6188 16.7918C19.3788 16.7918 19.218 16.9254 19.1178 17.1003V16.8355H18.6984V18.9537H19.1178V17.7609C19.1178 17.4087 19.2576 17.2082 19.5186 17.2082C19.5978 17.2082 19.698 17.2314 19.7795 17.2519L19.9007 16.8149C19.8192 16.7918 19.7003 16.7918 19.6188 16.7918ZM14.2598 17.8972C14.2598 18.5373 14.6606 19 15.2804 19C15.56 19 15.7603 18.9332 15.9607 18.7584L15.7603 18.383C15.5996 18.5167 15.4411 18.581 15.2594 18.581C14.9192 18.581 14.6792 18.3162 14.6792 17.8972C14.6792 17.4987 14.9192 17.2339 15.2594 17.2134C15.4388 17.2134 15.5996 17.2802 15.7603 17.4113L15.9607 17.036C15.7603 16.8586 15.56 16.7943 15.2804 16.7943C14.6606 16.7918 14.2598 17.2571 14.2598 17.8972ZM18.1392 17.8972V16.838H17.7199V17.1028C17.5801 16.9049 17.3797 16.7943 17.1187 16.7943C16.5782 16.7943 16.1588 17.2571 16.1588 17.8972C16.1588 18.5373 16.5782 19 17.1187 19C17.3983 19 17.5987 18.8895 17.7199 18.6915V18.9563H18.1392V17.8972ZM16.5991 17.8972C16.5991 17.5219 16.8182 17.2134 17.1793 17.2134C17.5195 17.2134 17.7595 17.5013 17.7595 17.8972C17.7595 18.2725 17.5195 18.581 17.1793 18.581C16.8205 18.5578 16.5991 18.2699 16.5991 17.8972ZM11.5804 16.7918C11.0212 16.7918 10.6204 17.2339 10.6204 17.8946C10.6204 18.5578 11.0212 18.9974 11.6014 18.9974C11.8809 18.9974 12.1605 18.91 12.3819 18.7095L12.1815 18.3779C12.0207 18.5116 11.8204 18.599 11.6223 18.599C11.3614 18.599 11.1027 18.4653 11.0422 18.0925H12.4611C12.4611 18.0257 12.4611 17.982 12.4611 17.9152C12.4798 17.2339 12.1186 16.7918 11.5804 16.7918ZM11.5804 17.1902C11.8413 17.1902 12.0207 17.3676 12.0604 17.6967H11.0608C11.1004 17.4113 11.2798 17.1902 11.5804 17.1902ZM22 17.8972V16H21.5806V17.1028C21.4408 16.9049 21.2404 16.7943 20.9795 16.7943C20.4389 16.7943 20.0195 17.2571 20.0195 17.8972C20.0195 18.5373 20.4389 19 20.9795 19C21.2591 19 21.4594 18.8895 21.5806 18.6915V18.9563H22V17.8972ZM20.4599 17.8972C20.4599 17.5219 20.6789 17.2134 21.0401 17.2134C21.3802 17.2134 21.6202 17.5013 21.6202 17.8972C21.6202 18.2725 21.3802 18.581 21.0401 18.581C20.6789 18.5578 20.4599 18.2699 20.4599 17.8972ZM6.41951 17.8972V16.838H6.00011V17.1028C5.86031 16.9049 5.65994 16.7943 5.39898 16.7943C4.85843 16.7943 4.43903 17.2571 4.43903 17.8972C4.43903 18.5373 4.85843 19 5.39898 19C5.67858 19 5.87895 18.8895 6.00011 18.6915V18.9563H6.41951V17.8972ZM4.86076 17.8972C4.86076 17.5219 5.07977 17.2134 5.44092 17.2134C5.78109 17.2134 6.02108 17.5013 6.02108 17.8972C6.02108 18.2725 5.78109 18.581 5.44092 18.581C5.07977 18.5578 4.86076 18.2699 4.86076 17.8972Z" fill="#00051E"/>
<path d="M14.6025 1.60156H8.37842V13.3754H14.6025V1.60156Z" fill="#FF5A00"/>
<path d="M8.79283 7.4889C8.79283 5.09681 9.86086 2.97375 11.4997 1.60199C10.2936 0.603474 8.77211 0 7.11252 0C3.18107 0 0 3.3494 0 7.4889C0 11.6284 3.18107 14.9778 7.11252 14.9778C8.77211 14.9778 10.2936 14.3743 11.4997 13.3758C9.85856 12.0234 8.79283 9.88099 8.79283 7.4889Z" fill="#EB001B"/>
<path d="M22.9997 7.4889C22.9997 11.6284 19.8187 14.9778 15.8872 14.9778C14.2276 14.9778 12.7061 14.3743 11.5 13.3758C13.1596 12.0016 14.2069 9.88099 14.2069 7.4889C14.2069 5.09681 13.1389 2.97375 11.5 1.60199C12.7038 0.603474 14.2253 0 15.8849 0C19.8187 0 22.9997 3.37122 22.9997 7.4889Z" fill="#F79E1B"/>
</svg>
