<svg width="45" height="9" viewBox="0 0 45 9" fill="none" xmlns="http://www.w3.org/2000/svg">
<path d="M44.1763 0.684028C43.6018 0.229167 42.7349 0 41.5964 0H38.6175L37.5106 6.96007H33.6107L33.8582 5.38194H36.2086L36.4876 3.60764H34.1387L34.3907 2.03646H36.8131L37.1341 0H32.2158L31.1658 6.59722H29.3659L30.4248 0H27.8479L26.798 6.59722H25.0385L26.099 0H23.5281L22.4196 6.96007H18.4883L18.7373 5.38194H21.0982L21.3772 3.61806H19.0193L19.2698 2.0434H21.7192L22.0372 0H6.71224L5.83928 5.51562L4.10234 0H1.43545L0 9H2.5499L3.41537 3.33333L5.09981 9H14.23L15.3399 2.03819H16.7679L15.6579 9H39.678L40.374 4.6059L41.5004 9H44.0503L42.8834 5.40972L43.1503 5.34375C43.6869 5.23263 44.1716 4.90321 44.5168 4.41493C44.8494 3.89165 45.0192 3.25338 44.9983 2.60417C44.9983 1.75347 44.7298 1.12674 44.1748 0.694444L44.1763 0.684028ZM12.0145 6.96007H8.11469L8.36668 5.38194H10.8131L11.0906 3.60417H8.66817L8.90216 2.04167H12.802L12.013 6.96007H12.0145ZM42.0764 3.92882C41.8199 4.13542 41.4479 4.23785 40.9409 4.23785H40.437L40.8239 1.82292H41.1944C41.6159 1.82292 41.9234 1.90104 42.1364 2.06076C42.2552 2.15214 42.3512 2.27798 42.4149 2.42572C42.4786 2.57346 42.5077 2.73795 42.4994 2.90278C42.5093 3.10145 42.4757 3.29981 42.4018 3.47947C42.3279 3.65914 42.2159 3.81429 42.0764 3.93056V3.92882Z" fill="#83BA3B"/>
</svg>
