<svg width="64" height="64" viewBox="0 0 64 64" fill="none" xmlns="http://www.w3.org/2000/svg">
<path d="M47.025 13.0011C47.016 13.0011 47.008 12.9961 47 12.9961H17C16.991 12.9961 16.983 13.0011 16.975 13.0011C7.613 13.0161 0.002 20.6331 0 29.9971V29.9981V34.0021C0 43.3711 7.619 50.9941 16.987 51.0011C16.991 51.0011 16.995 51.0041 17 51.0041H46.998C47.002 51.0041 47.006 51.0021 47.011 51.0011C56.38 50.9961 64 43.3721 64 34.0021V29.9981C64 29.9981 64 29.9981 64 29.9971C63.998 20.6331 56.387 13.0161 47.025 13.0011ZM17 15.0001C17.007 15.0001 17.013 14.9961 17.02 14.9961H46.98C46.987 14.9961 46.993 15.0001 47 15.0001C55.271 15.0001 62 21.7291 62 30.0001C62 38.2711 55.271 45.0001 47 45.0001H17C8.729 45.0001 2 38.2711 2 30.0001C2 21.7291 8.729 15.0001 17 15.0001ZM47 49.0021C46.996 49.0021 46.994 49.0041 46.99 49.0041H17.01C17.006 49.0041 17.004 49.0021 17 49.0021C10.828 49.0021 5.519 45.2541 3.22 39.9151C6.31 44.1971 11.328 47.0001 17 47.0001H47C52.672 47.0001 57.691 44.1971 60.781 39.9151C58.481 45.2541 53.172 49.0021 47 49.0021Z" fill="#F28705"/>
<path d="M21.5 33H24.5C25.053 33 25.5 32.553 25.5 32V28C25.5 27.447 25.053 27 24.5 27H21.5C20.947 27 20.5 27.447 20.5 28V32C20.5 32.553 20.947 33 21.5 33ZM22.5 29H23.5V31H22.5V29Z" fill="#F28705"/>
<path d="M27.5 33H30.5C31.053 33 31.5 32.553 31.5 32V28C31.5 27.447 31.053 27 30.5 27H27.5C26.947 27 26.5 27.447 26.5 28V32C26.5 32.553 26.947 33 27.5 33ZM28.5 29H29.5V31H28.5V29Z" fill="#F28705"/>
<path d="M33.5 33H36.5C37.053 33 37.5 32.553 37.5 32V28C37.5 27.447 37.053 27 36.5 27H33.5C32.947 27 32.5 27.447 32.5 28V32C32.5 32.553 32.947 33 33.5 33ZM34.5 29H35.5V31H34.5V29Z" fill="#F28705"/>
<path d="M39.5 33H42.5C43.053 33 43.5 32.553 43.5 32V28C43.5 27.447 43.053 27 42.5 27H39.5C38.947 27 38.5 27.447 38.5 28V32C38.5 32.553 38.947 33 39.5 33ZM40.5 29H41.5V31H40.5V29Z" fill="#F28705"/>
<path d="M27.5 44.004H30.5C31.053 44.004 31.5 43.557 31.5 43.004V39C31.5 38.447 31.053 38 30.5 38H27.5C26.947 38 26.5 38.447 26.5 39V43.004C26.5 43.557 26.947 44.004 27.5 44.004ZM28.5 40H29.5V42.004H28.5V40Z" fill="#F28705"/>
<path d="M33.5 44.004H36.5C37.053 44.004 37.5 43.557 37.5 43.004V39C37.5 38.447 37.053 38 36.5 38H33.5C32.947 38 32.5 38.447 32.5 39V43.004C32.5 43.557 32.947 44.004 33.5 44.004ZM34.5 40H35.5V42.004H34.5V40Z" fill="#F28705"/>
<path d="M27.5 21.9979H30.5C31.053 21.9979 31.5 21.5509 31.5 20.9979V16.9939C31.5 16.4409 31.053 15.9939 30.5 15.9939H27.5C26.947 15.9939 26.5 16.4409 26.5 16.9939V20.9979C26.5 21.5509 26.947 21.9979 27.5 21.9979ZM28.5 17.9939H29.5V19.9979H28.5V17.9939Z" fill="#F28705"/>
<path d="M33.5 21.9979H36.5C37.053 21.9979 37.5 21.5509 37.5 20.9979V16.9939C37.5 16.4409 37.053 15.9939 36.5 15.9939H33.5C32.947 15.9939 32.5 16.4409 32.5 16.9939V20.9979C32.5 21.5509 32.947 21.9979 33.5 21.9979ZM34.5 17.9939H35.5V19.9979H34.5V17.9939Z" fill="#F28705"/>
<path d="M6 29.499H10.004C10.557 29.499 11.004 29.052 11.004 28.499V25.499C11.004 24.946 10.557 24.499 10.004 24.499H6C5.447 24.499 5 24.946 5 25.499V28.499C5 29.052 5.447 29.499 6 29.499ZM7 26.499H9.004V27.499H7V26.499Z" fill="#F28705"/>
<path d="M6 35.499H10.004C10.557 35.499 11.004 35.052 11.004 34.499V31.499C11.004 30.946 10.557 30.499 10.004 30.499H6C5.447 30.499 5 30.946 5 31.499V34.499C5 35.052 5.447 35.499 6 35.499ZM7 32.499H9.004V33.499H7V32.499Z" fill="#F28705"/>
<path d="M53.998 29.499H58.002C58.555 29.499 59.002 29.052 59.002 28.499V25.499C59.002 24.946 58.555 24.499 58.002 24.499H53.998C53.445 24.499 52.998 24.946 52.998 25.499V28.499C52.998 29.052 53.445 29.499 53.998 29.499ZM54.998 26.499H57.002V27.499H54.998V26.499Z" fill="#F28705"/>
<path d="M53.998 35.499H58.002C58.555 35.499 59.002 35.052 59.002 34.499V31.499C59.002 30.946 58.555 30.499 58.002 30.499H53.998C53.445 30.499 52.998 30.946 52.998 31.499V34.499C52.998 35.052 53.445 35.499 53.998 35.499ZM54.998 32.499H57.002V33.499H54.998V32.499Z" fill="#F28705"/>
</svg>
