<svg width="64" height="64" viewBox="0 0 64 64" fill="none" xmlns="http://www.w3.org/2000/svg">
<g clip-path="url(#clip0_530_478)">
<path d="M11.6616 12.812C11.3571 12.395 10.8273 12.2081 10.3286 12.3417C9.82985 12.4753 9.46448 12.902 9.40936 13.4154L8.60687 20.8772C8.53312 21.5636 9.02961 22.1798 9.7161 22.2537C9.76148 22.2586 9.8066 22.2609 9.85122 22.2609C10.4816 22.2609 11.0236 21.7854 11.0926 21.1444L11.5493 16.8971L14.0684 20.3471C14.4755 20.9046 15.2576 21.0266 15.8151 20.6195C16.3726 20.2123 16.4946 19.4304 16.0875 18.8727L11.6616 12.812Z" fill="#F28705"/>
<path d="M60.2501 9.50064H39.1175L37.3169 2.78074C37.0577 1.81326 36.4372 1.00464 35.5697 0.503776C34.7023 0.00290902 33.692 -0.130089 32.7241 0.129157L2.78096 8.15241C1.81347 8.41166 1.00486 9.03215 0.503992 9.89963C0.00325031 10.767 -0.129873 11.7776 0.129373 12.7452L12.2937 58.143C12.5529 59.1105 13.1734 59.9191 14.0409 60.42C14.6188 60.7536 15.2599 60.924 15.9098 60.924C16.2354 60.924 16.5634 60.8811 16.8864 60.7946L25.5006 58.4865V60.2499C25.5006 62.3176 27.1828 63.9998 29.2505 63.9998H60.2501C62.3178 63.9998 64 62.3176 64 60.2499V42.3751C64 41.6848 63.4404 41.1251 62.75 41.1251C62.0597 41.1251 61.5 41.6848 61.5 42.3751V60.2499C61.5 60.9391 60.9393 61.4998 60.2501 61.4998H29.2505C28.5613 61.4998 28.0006 60.9391 28.0006 60.2499V13.2506C28.0006 12.5613 28.5613 12.0006 29.2505 12.0006H60.2501C60.9393 12.0006 61.5 12.5613 61.5 13.2506V31.1253C61.5 31.8157 62.0597 32.3753 62.75 32.3753C63.4404 32.3753 64 31.8157 64 31.1253V13.2506C64 11.1829 62.3178 9.50064 60.2501 9.50064ZM25.5006 35.5069C24.283 36.7281 22.3404 37.0068 20.8194 36.1288C18.9701 35.061 18.3342 32.6878 19.4019 30.8384L23.4726 23.7878L25.5006 24.9587V35.5069ZM25.5006 13.2506V22.0718L23.6401 20.9977C23.0421 20.6523 22.2778 20.8573 21.9327 21.4552L17.237 29.5883C16.3859 31.0624 16.1597 32.7799 16.6004 34.4241C17.0409 36.0684 18.0955 37.4426 19.5696 38.2937C20.5789 38.8764 21.6812 39.1578 22.7701 39.1578C23.7135 39.1578 24.6466 38.9458 25.5006 38.5364V55.8983L16.2394 58.3799C15.9169 58.4661 15.58 58.422 15.2909 58.255C15.0018 58.0881 14.7949 57.8185 14.7085 57.496L2.54421 12.0981C2.36584 11.4324 2.76233 10.7456 3.42807 10.5671L33.3714 2.54387C33.6937 2.4575 34.0306 2.50187 34.3198 2.66874C34.609 2.83562 34.8158 3.10524 34.9022 3.42773L36.5294 9.50051H29.2505C27.1828 9.50064 25.5006 11.1829 25.5006 13.2506Z" fill="#F28705"/>
<path d="M38.6136 24.9165C39.2575 24.6675 39.5777 23.9437 39.3287 23.2999L36.6224 16.3C36.4361 15.8182 35.9729 15.5007 35.4565 15.5007C34.9401 15.5007 34.4769 15.8182 34.2907 16.3L31.5845 23.2999C31.3355 23.9437 31.6557 24.6675 32.2996 24.9165C32.4478 24.9738 32.6001 25.001 32.7501 25.001C33.2514 25.001 33.7245 24.6971 33.9162 24.2014L35.4565 20.217L36.997 24.2014C37.2459 24.8452 37.9699 25.1657 38.6136 24.9165Z" fill="#F28705"/>
<path d="M52.8777 57.2008C53.064 57.6824 53.5272 58 54.0436 58C54.5599 58 55.0232 57.6825 55.2094 57.2008L57.9156 50.2009C58.1646 49.5571 57.8444 48.8333 57.2005 48.5843C56.5568 48.3356 55.8329 48.6556 55.5839 49.2994L54.0436 53.2837L52.5031 49.2994C52.2542 48.6556 51.5302 48.3351 50.8865 48.5843C50.2426 48.8333 49.9224 49.5571 50.1714 50.2009L52.8777 57.2008Z" fill="#F28705"/>
<path d="M43.8666 46.2591C44.1106 46.5032 44.4306 46.6252 44.7505 46.6252C45.0703 46.6252 45.3903 46.5032 45.6343 46.2591L52.2751 39.6183C54.7598 37.1336 54.7598 33.0905 52.2751 30.6058V30.6057C50.2471 28.5779 47.2023 28.1661 44.7505 29.4962C42.2988 28.1664 39.2537 28.578 37.2258 30.6057C34.7411 33.0904 34.7411 37.1335 37.2258 39.6182L43.8666 46.2591ZM38.9936 32.3735C39.7387 31.6284 40.738 31.2462 41.7408 31.2462C42.5381 31.2462 43.3377 31.4881 44.0127 31.9814C44.4521 32.3025 45.0487 32.3025 45.4881 31.9814C47.0121 30.8676 49.1699 31.0361 50.5072 32.3734C52.0172 33.8835 52.0172 36.3405 50.5072 37.8505L44.7503 43.6074L38.9934 37.8506C37.4836 36.3406 37.4836 33.8835 38.9936 32.3735Z" fill="#F28705"/>
<path d="M62.75 35.5005C62.4213 35.5005 62.0987 35.6342 61.8662 35.8667C61.6337 36.0992 61.5 36.4217 61.5 36.7505C61.5 37.0792 61.6337 37.4017 61.8662 37.6342C62.0987 37.8667 62.4213 38.0005 62.75 38.0005C63.0788 38.0005 63.4013 37.8667 63.6338 37.6342C63.8663 37.4017 64 37.0792 64 36.7505C64 36.4217 63.8663 36.0992 63.6338 35.8667C63.4013 35.6342 63.0788 35.5005 62.75 35.5005Z" fill="#F28705"/>
</g>
<defs>
<clipPath id="clip0_530_478">
<rect width="64" height="64" fill="white"/>
</clipPath>
</defs>
</svg>
