<svg width="32" height="33" viewBox="0 0 32 33" fill="none" xmlns="http://www.w3.org/2000/svg">
<path d="M24.7752 6.13483C20.6895 6.13483 17.4636 9.44739 17.4636 13.533C17.4636 17.6187 20.8191 20.9312 24.9047 20.9312C24.9456 20.9312 25.0072 20.9257 25.0481 20.925C23.4327 22.2114 21.4037 22.9865 19.1829 22.9865C18.1611 22.9865 17.3389 23.815 17.3389 24.8361C17.3389 25.8571 17.9963 26.6856 19.018 26.6856C26.2701 26.6849 32.0002 20.7851 32.0002 13.533C32.0002 13.5316 32.0002 13.5303 32.0002 13.5282C32.0002 9.44462 28.8594 6.13483 24.7752 6.13483Z" fill="#F28705"/>
<path d="M7.44669 6.13483C3.36106 6.13483 0.129538 9.44739 0.129538 13.533C0.129538 17.6187 3.48228 20.9312 7.56861 20.9312C7.60948 20.9312 7.66975 20.9257 7.71062 20.925C6.0952 22.2114 4.06555 22.9865 1.8447 22.9865C0.822946 22.9865 0 23.815 0 24.8361C0 25.8571 0.667778 26.6856 1.68953 26.6856C8.94157 26.6849 14.6821 20.7851 14.6821 13.533C14.6821 13.5316 14.6821 13.5303 14.6821 13.5282C14.6821 9.44462 11.5309 6.13483 7.44669 6.13483Z" fill="#F28705"/>
</svg>
