<svg width="32" height="33" viewBox="0 0 32 33" fill="none" xmlns="http://www.w3.org/2000/svg">
<path d="M12.8933 19.0781C13.6304 19.0781 14.2279 18.4806 14.2279 17.7435C14.2279 17.0064 13.6304 16.4088 12.8933 16.4088C12.1561 16.4088 11.5586 17.0064 11.5586 17.7435C11.5586 18.4806 12.1561 19.0781 12.8933 19.0781Z" fill="white"/>
<path d="M18.7865 20.9315C17.9771 21.5115 16.994 21.798 15.9998 21.7435C15.0062 21.7881 14.0272 21.4917 13.2251 20.9035C13.1559 20.8483 13.0687 20.8205 12.9802 20.8255C12.8918 20.8305 12.8083 20.868 12.7457 20.9307C12.6832 20.9934 12.6459 21.077 12.6412 21.1655C12.6364 21.2539 12.6644 21.3411 12.7198 21.4102C13.6665 22.1235 14.8291 22.4888 16.0145 22.4368C17.1979 22.4888 18.3623 22.1257 19.3065 21.4102V21.4635C19.3763 21.3939 19.4162 21.2997 19.4177 21.2011C19.4192 21.1025 19.3821 21.0072 19.3145 20.9355C19.2801 20.9006 19.2391 20.8728 19.194 20.8536C19.1488 20.8345 19.1003 20.8245 19.0513 20.8241C19.0023 20.8238 18.9536 20.8331 18.9082 20.8515C18.8628 20.8699 18.8214 20.8971 18.7865 20.9315ZM19.0651 16.4635C18.7115 16.4635 18.3724 16.604 18.1223 16.854C17.8723 17.1041 17.7318 17.4432 17.7318 17.7968C17.7318 18.1505 17.8723 18.4896 18.1223 18.7396C18.3724 18.9897 18.7115 19.1302 19.0651 19.1302L19.0545 19.1822C19.0758 19.1848 19.0985 19.1822 19.1225 19.1822C19.4752 19.1676 19.8078 19.0137 20.0473 18.7543C20.2867 18.4948 20.4135 18.151 20.3998 17.7982C20.4 17.6228 20.3656 17.4492 20.2986 17.2872C20.2315 17.1252 20.1332 16.978 20.0093 16.854C19.8853 16.7301 19.7381 16.6318 19.5761 16.5647C19.4141 16.4977 19.2405 16.4633 19.0651 16.4635Z" fill="white"/>
<path d="M15.9998 3.07678C8.6385 3.07678 2.6665 9.04612 2.6665 16.4101C2.6665 23.7715 8.6385 29.7435 15.9998 29.7435C23.3612 29.7435 29.3332 23.7715 29.3332 16.4101C29.3332 9.04612 23.3612 3.07678 15.9998 3.07678ZM23.8118 18.1834C23.8278 18.3781 23.8278 18.5741 23.8118 18.7688C23.8118 21.7554 20.3332 24.1848 16.0385 24.1848C11.7438 24.1848 8.26517 21.7581 8.26517 18.7688C8.24917 18.574 8.24917 18.3782 8.26517 18.1834C7.98442 18.0547 7.73835 17.8609 7.54729 17.6182C7.35623 17.3755 7.22567 17.0908 7.1664 16.7876C7.10712 16.4845 7.12084 16.1716 7.20641 15.8748C7.29198 15.578 7.44694 15.3058 7.6585 15.0808C7.83346 14.8944 8.04346 14.7444 8.27647 14.6393C8.50947 14.5342 8.76092 14.4761 9.01642 14.4683C9.27191 14.4605 9.52643 14.5032 9.76542 14.5938C10.0044 14.6845 10.2232 14.8215 10.4092 14.9968C11.9453 13.9554 13.7522 13.3854 15.6078 13.3568L16.5985 8.73012V8.72478C16.623 8.61784 16.6887 8.52485 16.7813 8.46596C16.8739 8.40707 16.9859 8.38701 17.0932 8.41012L20.3585 9.06345C20.5186 8.78929 20.7711 8.58116 21.0708 8.47644C21.3705 8.37171 21.6978 8.37725 21.9937 8.49205C22.2897 8.60685 22.5351 8.8234 22.6858 9.10283C22.8365 9.38225 22.8827 9.70624 22.816 10.0166C22.7494 10.327 22.5742 10.6035 22.3221 10.7964C22.07 10.9893 21.7573 11.086 21.4403 11.0692C21.1233 11.0523 20.8226 10.923 20.5923 10.7045C20.3621 10.486 20.2172 10.1925 20.1838 9.87678L17.3332 9.27678L16.4678 13.4368C18.3014 13.4763 20.0843 14.0459 21.6012 15.0768C21.8722 14.8172 22.2125 14.6414 22.581 14.5707C22.9496 14.5 23.3308 14.5373 23.6786 14.6782C24.0265 14.8191 24.3262 15.0575 24.5417 15.3648C24.7572 15.6721 24.8792 16.0351 24.8932 16.4101C24.9065 17.1608 24.4838 17.8501 23.8118 18.1834Z" fill="white"/>
</svg>
