<svg width="64" height="64" viewBox="0 0 64 64" fill="none" xmlns="http://www.w3.org/2000/svg">
<g clip-path="url(#clip0_530_491)">
<path d="M32 0C14.355 0 0 14.355 0 32C0 49.645 14.355 64 32 64C49.645 64 64 49.645 64 32C64 14.355 49.645 0 32 0ZM32 62C15.458 62 2 48.542 2 32C2 15.458 15.458 2 32 2C48.542 2 62 15.458 62 32C62 48.542 48.542 62 32 62Z" fill="#F28705"/>
<path d="M39.7062 24.294C39.3152 23.903 38.6832 23.903 38.2922 24.294L34.0212 28.565C33.4142 28.205 32.7262 28 32.0002 28C31.2742 28 30.5862 28.205 29.9792 28.564L25.7192 24.304C25.3282 23.913 24.6962 23.913 24.3052 24.304C23.9142 24.695 23.9142 25.327 24.3052 25.718L28.5652 29.978C27.8322 31.224 27.8322 32.775 28.5652 34.021L24.2942 38.292C23.9032 38.683 23.9032 39.315 24.2942 39.706C24.4892 39.901 24.7452 39.999 25.0012 39.999C25.2572 39.999 25.5132 39.901 25.7082 39.706L29.9792 35.435C30.5862 35.795 31.2742 36 32.0002 36C32.7262 36 33.4142 35.795 34.0212 35.436L38.2922 39.707C38.4872 39.902 38.7432 40 38.9992 40C39.2552 40 39.5112 39.902 39.7062 39.707C40.0972 39.316 40.0972 38.684 39.7062 38.293L35.4352 34.022C36.1682 32.776 36.1682 31.225 35.4352 29.979L39.7062 25.708C40.0972 25.317 40.0972 24.685 39.7062 24.294ZM30.5852 33.415C29.8052 32.635 29.8052 31.365 30.5852 30.585C30.9632 30.208 31.4652 30 32.0002 30C32.5352 30 33.0372 30.208 33.4152 30.585C34.1952 31.365 34.1952 32.635 33.4152 33.415C32.6592 34.169 31.3412 34.169 30.5852 33.415Z" fill="#F28705"/>
<path d="M32.0299 31H32.0199C31.4679 31 31.0259 31.447 31.0259 32C31.0259 32.553 31.4779 33 32.0309 33C32.5829 33 33.0309 32.553 33.0309 32C33.0309 31.447 32.5819 31 32.0299 31Z" fill="#F28705"/>
<path d="M34.382 48.8459H34.371C33.819 48.8459 33.377 49.2929 33.377 49.8459C33.377 50.3989 33.829 50.8459 34.382 50.8459C34.934 50.8459 35.382 50.3989 35.382 49.8459C35.382 49.2929 34.934 48.8459 34.382 48.8459Z" fill="#F28705"/>
<path d="M56.249 18C56.237 17.979 56.217 17.968 56.203 17.948C54.992 15.87 53.525 13.957 51.84 12.261C51.823 12.242 51.817 12.218 51.799 12.2C51.781 12.182 51.757 12.176 51.738 12.159C50.043 10.473 48.131 9.007 46.051 7.796C46.032 7.783 46.021 7.763 46 7.751C45.979 7.739 45.955 7.739 45.934 7.729C43.86 6.534 41.621 5.595 39.258 4.959C39.254 4.958 39.251 4.955 39.247 4.954C39.243 4.953 39.24 4.954 39.236 4.953C36.927 4.335 34.502 4 32 4C29.498 4 27.073 4.335 24.764 4.953C24.76 4.954 24.757 4.953 24.753 4.954C24.749 4.955 24.746 4.958 24.742 4.959C22.379 5.595 20.14 6.533 18.066 7.729C18.045 7.739 18.021 7.738 18 7.751C17.979 7.763 17.968 7.783 17.948 7.797C15.869 9.008 13.957 10.475 12.261 12.16C12.242 12.177 12.218 12.183 12.2 12.201C12.182 12.219 12.176 12.243 12.159 12.262C10.473 13.957 9.007 15.869 7.796 17.949C7.783 17.968 7.763 17.979 7.751 18C7.738 18.021 7.739 18.045 7.729 18.066C6.534 20.14 5.595 22.379 4.959 24.742C4.958 24.746 4.955 24.749 4.954 24.753C4.953 24.756 4.954 24.76 4.953 24.763C4.335 27.073 4 29.498 4 32C4 34.502 4.335 36.927 4.953 39.237C4.954 39.24 4.953 39.244 4.954 39.247C4.955 39.252 4.959 39.256 4.96 39.26C5.595 41.623 6.533 43.861 7.729 45.934C7.74 45.955 7.739 45.979 7.751 46C7.769 46.03 7.793 46.053 7.814 46.081C9.022 48.148 10.483 50.051 12.161 51.738C12.178 51.757 12.184 51.781 12.202 51.799C12.22 51.817 12.244 51.823 12.263 51.84C13.958 53.526 15.87 54.992 17.95 56.203C17.97 56.217 17.981 56.237 18.002 56.249C18.033 56.268 18.067 56.275 18.1 56.289C20.165 57.476 22.393 58.409 24.745 59.041C24.749 59.042 24.752 59.045 24.756 59.046C24.761 59.047 24.766 59.047 24.771 59.048C27.076 59.666 29.499 60 32 60C34.501 60 36.924 59.666 39.232 59.048C39.237 59.047 39.242 59.047 39.247 59.046C39.251 59.045 39.254 59.042 39.258 59.041C41.61 58.409 43.837 57.476 45.903 56.289C45.935 56.275 45.969 56.268 46.001 56.249C46.022 56.237 46.033 56.217 46.053 56.203C48.132 54.992 50.044 53.525 51.74 51.84C51.759 51.823 51.783 51.817 51.801 51.799C51.819 51.781 51.825 51.757 51.842 51.738C53.521 50.05 54.981 48.147 56.19 46.08C56.21 46.053 56.234 46.03 56.252 46C56.265 45.979 56.264 45.955 56.274 45.934C57.468 43.861 58.408 41.623 59.043 39.261C59.044 39.256 59.048 39.252 59.049 39.247C59.05 39.244 59.049 39.24 59.05 39.237C59.665 36.927 60 34.502 60 32C60 29.498 59.665 27.073 59.047 24.763C59.046 24.76 59.047 24.756 59.046 24.753C59.045 24.749 59.042 24.746 59.041 24.742C58.405 22.379 57.467 20.14 56.271 18.066C56.261 18.045 56.262 18.021 56.249 18ZM54.992 44.12L51.525 42.118C52.099 41.014 52.586 39.857 52.968 38.654L56.838 39.69C56.359 41.234 55.736 42.714 54.992 44.12ZM51.066 49.652L48.239 46.825C49.082 45.902 49.843 44.905 50.521 43.848L53.988 45.849C53.131 47.207 52.152 48.48 51.066 49.652ZM45.85 53.988L43.849 50.522C44.905 49.843 45.903 49.083 46.826 48.239L49.653 51.066C48.48 52.153 47.207 53.131 45.85 53.988ZM39.69 56.839L38.654 52.969C39.857 52.586 41.013 52.1 42.118 51.526L44.12 54.993C42.714 55.736 41.234 56.359 39.69 56.839ZM19.88 54.992L21.882 51.525C22.986 52.099 24.143 52.586 25.346 52.968L24.31 56.837C22.766 56.359 21.286 55.736 19.88 54.992ZM14.348 51.066L17.175 48.239C18.098 49.082 19.095 49.843 20.152 50.521L18.151 53.988C16.793 53.131 15.52 52.152 14.348 51.066ZM10.012 45.85L13.478 43.849C14.157 44.905 14.917 45.903 15.761 46.826L12.934 49.653C11.847 48.479 10.869 47.207 10.012 45.85ZM7.161 39.69L11.031 38.653C11.414 39.856 11.9 41.013 12.474 42.118L9.008 44.12C8.264 42.714 7.641 41.234 7.161 39.69ZM9.008 19.88L12.475 21.882C11.901 22.986 11.414 24.144 11.032 25.347L7.162 24.31C7.641 22.766 8.264 21.286 9.008 19.88ZM12.934 14.348L15.761 17.175C14.917 18.098 14.157 19.096 13.478 20.152L10.012 18.151C10.869 16.793 11.847 15.521 12.934 14.348ZM18.15 10.012L20.151 13.478C19.095 14.157 18.097 14.918 17.174 15.761L14.347 12.934C15.52 11.847 16.793 10.869 18.15 10.012ZM24.31 7.161L25.347 11.031C24.143 11.414 22.987 11.9 21.882 12.474L19.88 9.008C21.286 8.264 22.766 7.641 24.31 7.161ZM44.12 9.008L42.118 12.475C41.014 11.901 39.857 11.414 38.654 11.032L39.69 7.162C41.234 7.641 42.714 8.264 44.12 9.008ZM49.652 12.934L46.825 15.761C45.902 14.918 44.905 14.157 43.848 13.479L45.849 10.012C47.207 10.869 48.48 11.848 49.652 12.934ZM53.988 18.15L50.521 20.151C49.843 19.094 49.082 18.097 48.239 17.174L51.066 14.347C52.152 15.52 53.131 16.793 53.988 18.15ZM46 32C46 39.72 39.72 46 32 46C24.284 46 18.007 39.726 18.001 32.012C18.001 32.008 18.003 32.004 18.003 32C18.003 31.996 18.001 31.992 18.001 31.988C18.007 24.274 24.284 18 32 18C39.72 18 46 24.28 46 32ZM42.567 20.019C42.022 19.538 41.453 19.084 40.845 18.68L42.843 15.219C43.748 15.807 44.597 16.47 45.394 17.192L42.567 20.019ZM39.109 17.688C38.461 17.365 37.79 17.081 37.095 16.847L38.133 12.972C39.166 13.306 40.158 13.728 41.112 14.218L39.109 17.688ZM35.167 16.317C34.462 16.174 33.735 16.096 33 16.05V12.05C34.092 12.105 35.164 12.229 36.203 12.452L35.167 16.317ZM31 16.051C30.265 16.097 29.538 16.175 28.833 16.318L27.798 12.453C28.836 12.23 29.908 12.106 31 12.052V16.051ZM26.904 16.847C26.21 17.08 25.54 17.364 24.891 17.688L22.888 14.218C23.84 13.728 24.832 13.306 25.866 12.972L26.904 16.847ZM23.154 18.68C22.547 19.084 21.977 19.537 21.432 20.019L18.605 17.192C19.402 16.469 20.251 15.807 21.156 15.219L23.154 18.68ZM20.019 21.433C19.538 21.978 19.084 22.548 18.679 23.156L15.219 21.158C15.806 20.252 16.469 19.403 17.192 18.606L20.019 21.433ZM17.687 24.892C17.364 25.54 17.081 26.211 16.846 26.906L12.972 25.867C13.305 24.834 13.728 23.842 14.218 22.889L17.687 24.892ZM16.317 28.834C16.174 29.539 16.096 30.265 16.05 31H12.05C12.105 29.909 12.229 28.837 12.451 27.798L16.317 28.834ZM16.051 33C16.097 33.735 16.175 34.461 16.318 35.166L12.453 36.202C12.23 35.163 12.106 34.091 12.052 33H16.051ZM16.846 37.095C17.08 37.789 17.364 38.46 17.687 39.109L14.218 41.112C13.728 40.16 13.305 39.168 12.972 38.134L16.846 37.095ZM18.679 40.845C19.083 41.452 19.536 42.022 20.018 42.567L17.191 45.395C16.469 44.597 15.806 43.749 15.219 42.843L18.679 40.845ZM21.432 43.98C21.977 44.461 22.546 44.916 23.154 45.32L21.157 48.781C20.251 48.193 19.402 47.53 18.605 46.808L21.432 43.98ZM24.891 46.313C25.539 46.636 26.209 46.919 26.905 47.154L25.866 51.029C24.833 50.695 23.841 50.273 22.888 49.783L24.891 46.313ZM28.832 47.683C29.538 47.825 30.265 47.904 31 47.95V51.95C29.908 51.895 28.836 51.771 27.797 51.548L28.832 47.683ZM33 47.949C33.735 47.903 34.462 47.825 35.167 47.682L36.203 51.546C35.164 51.77 34.092 51.894 33 51.948V47.949ZM37.096 47.153C37.79 46.919 38.461 46.635 39.109 46.312L41.112 49.782C40.16 50.272 39.168 50.694 38.134 51.028L37.096 47.153ZM40.846 45.32C41.453 44.916 42.023 44.463 42.568 43.982L45.395 46.809C44.598 47.531 43.749 48.193 42.844 48.781L40.846 45.32ZM43.981 42.568C44.462 42.023 44.916 41.453 45.32 40.845L48.781 42.843C48.193 43.748 47.53 44.597 46.808 45.395L43.981 42.568ZM46.313 39.109C46.636 38.461 46.92 37.79 47.154 37.095L51.029 38.133C50.695 39.166 50.273 40.158 49.783 41.112L46.313 39.109ZM47.683 35.167C47.826 34.462 47.904 33.735 47.95 33H51.95C51.895 34.092 51.771 35.164 51.548 36.203L47.683 35.167ZM47.949 31C47.903 30.265 47.825 29.538 47.682 28.833L51.546 27.797C51.77 28.836 51.894 29.908 51.948 31H47.949ZM47.153 26.904C46.92 26.21 46.635 25.539 46.312 24.89L49.782 22.887C50.272 23.84 50.694 24.832 51.028 25.866L47.153 26.904ZM45.32 23.154C44.916 22.547 44.463 21.977 43.981 21.432L46.808 18.605C47.53 19.402 48.193 20.251 48.781 21.156L45.32 23.154ZM36.722 10.516C35.515 10.251 34.272 10.083 33 10.026V6.026C34.629 6.088 36.218 6.301 37.758 6.651L36.722 10.516ZM31 10.025C29.729 10.083 28.485 10.25 27.278 10.515L26.242 6.65C27.782 6.3 29.371 6.087 31 6.025V10.025ZM10.516 27.278C10.25 28.485 10.083 29.728 10.026 31H6.026C6.088 29.371 6.301 27.782 6.651 26.242L10.516 27.278ZM6.025 33H10.025C10.083 34.271 10.25 35.515 10.515 36.722L6.65 37.758C6.301 36.218 6.087 34.629 6.025 33ZM27.278 53.484C28.485 53.749 29.728 53.917 31 53.974V57.974C29.371 57.912 27.782 57.699 26.242 57.349L27.278 53.484ZM33 53.975C34.271 53.917 35.515 53.749 36.722 53.485L37.758 57.35C36.218 57.7 34.629 57.913 33 57.975V53.975ZM53.484 36.722C53.749 35.515 53.917 34.272 53.974 33H57.974C57.912 34.629 57.699 36.218 57.349 37.758L53.484 36.722ZM57.975 31H53.975C53.917 29.729 53.749 28.485 53.485 27.278L57.35 26.242C57.699 27.782 57.913 29.371 57.975 31ZM52.969 25.346C52.586 24.143 52.1 22.987 51.526 21.882L54.993 19.88C55.737 21.286 56.36 22.766 56.84 24.31L52.969 25.346Z" fill="#F28705"/>
</g>
<defs>
<clipPath id="clip0_530_491">
<rect width="64" height="64" fill="white"/>
</clipPath>
</defs>
</svg>
