<svg width="30" height="10" viewBox="0 0 30 10" fill="none" xmlns="http://www.w3.org/2000/svg">
<path d="M21.548 2.40217C22.2283 2.40217 22.7792 1.86454 22.7792 1.20161C22.7792 0.538677 22.228 0 21.548 0C20.8679 0 20.3178 0.538327 20.3178 1.20161C20.3177 1.3593 20.3495 1.51545 20.4113 1.66115C20.4731 1.80685 20.5637 1.93924 20.678 2.05076C20.7922 2.16228 20.9278 2.25074 21.0771 2.3111C21.2264 2.37146 21.3864 2.40217 21.548 2.40217ZM12.1175 3.0497C12.0619 3.18971 11.662 4.28876 10.6947 5.43087V0.546027L8.11778 1.04305V9.8985H10.6951V7.16136C11.4418 8.25341 11.8105 9.8985 11.8105 9.8985H14.8974C14.5926 8.65943 13.2566 6.37557 13.2566 6.37557C14.0503 5.37643 14.6621 4.25153 15.0653 3.05005L12.1175 3.0497ZM18.8925 2.9573C16.5845 3.02975 15.4125 4.04025 15.4125 6.04935V9.89814H17.9309V6.75989C17.9309 5.55723 18.0923 5.0448 19.5549 4.9923V2.9937C19.3089 2.9426 18.8925 2.9587 18.8925 2.9587M3.796 4.02625C3.48038 4.0063 2.74944 3.95975 2.74944 3.31782C2.74944 2.54323 3.80138 2.54323 4.19626 2.54323C4.89025 2.54323 5.78868 2.74274 6.43067 2.9307C6.64931 3.01946 6.87032 3.10256 7.09347 3.17991L7.12216 3.18761V1.0651L7.08342 1.0539C6.32595 0.79489 5.44545 0.546377 3.8125 0.546377C0.997059 0.546377 0 2.14666 0 3.51803C0 4.30837 0.347177 6.16871 3.57112 6.38327C3.84442 6.39972 4.56961 6.44032 4.56961 7.10431C4.56961 7.65208 3.97568 7.97515 2.97719 7.97515C1.88329 7.97515 0.820601 7.70284 0.176099 7.44452V9.62968C1.1416 9.87644 2.22975 10 3.50549 10C6.25816 10 7.49086 8.48583 7.49086 6.98495C7.49086 5.28316 6.11147 4.17781 3.79672 4.02625M20.3006 9.89955H22.7982V3.0581H20.2998L20.3006 9.89955ZM27.5016 0.982849V9.89955H30V0.547078L27.5016 0.982849ZM23.8566 0.982849L26.3521 0.547078V9.89955H23.8566V0.982149V0.982849Z" fill="#862565"/>
</svg>
