<svg width="64" height="64" viewBox="0 0 64 64" fill="none" xmlns="http://www.w3.org/2000/svg">
<path d="M5.49805 56.9219H47.504C50.261 56.9219 52.504 54.6789 52.504 51.9219V44.9159H62.502C63.055 44.9159 63.502 44.4689 63.502 43.9159V35.9139C63.502 35.3609 63.055 34.9139 62.502 34.9139H61.5V16.6979C62.721 15.7039 63.502 14.1909 63.502 12.4979C63.502 9.50988 61.071 7.07788 58.084 7.07788C55.096 7.07788 52.664 9.50988 52.664 12.4979C52.664 14.1099 53.376 15.5569 54.498 16.5499V34.9139H52.504V27.9119C52.504 27.9109 52.504 27.9109 52.504 27.9099C52.504 27.9089 52.504 27.9089 52.504 27.9079C52.504 25.1509 50.261 22.9079 47.504 22.9079H5.49805C2.74105 22.9079 0.498047 25.1509 0.498047 27.9079V51.9219C0.498047 54.6789 2.74105 56.9219 5.49805 56.9219ZM16.5 51.9219V27.9079C16.5 26.2539 17.846 24.9079 19.5 24.9079H29.527C28.892 25.7459 28.502 26.7779 28.502 27.9079V51.9219C28.502 53.0519 28.893 54.0839 29.527 54.9219H19.5C17.846 54.9219 16.5 53.5759 16.5 51.9219ZM43.529 24.9079C42.894 25.7459 42.504 26.7779 42.504 27.9079V51.9219C42.504 53.0519 42.895 54.0839 43.529 54.9219H33.502C31.848 54.9219 30.502 53.5759 30.502 51.9219V27.9079C30.502 26.2539 31.848 24.9079 33.502 24.9079H43.529ZM61.502 42.9159H48.504V36.9139H51.484C51.491 36.9139 51.497 36.9179 51.504 36.9179C51.511 36.9179 51.517 36.9139 51.524 36.9139H55.479C55.486 36.9139 55.492 36.9179 55.499 36.9179C55.506 36.9179 55.512 36.9139 55.519 36.9139H60.482C60.489 36.9139 60.495 36.9179 60.502 36.9179C60.509 36.9179 60.515 36.9139 60.522 36.9139H61.504V42.9159H61.502ZM58.084 9.07788C59.969 9.07788 61.502 10.6119 61.502 12.4979C61.502 14.3829 59.969 15.9159 58.084 15.9159C56.198 15.9159 54.664 14.3829 54.664 12.4979C54.664 10.6119 56.198 9.07788 58.084 9.07788ZM56.498 17.6779C57 17.8319 57.532 17.9159 58.084 17.9159C58.574 17.9159 59.048 17.8449 59.5 17.7219V34.9139H56.498V17.6779ZM50.504 27.9079V27.9099C50.504 27.9099 50.504 27.9109 50.504 27.9119V34.9139H47.504C46.951 34.9139 46.504 35.3609 46.504 35.9139V43.9159C46.504 44.4689 46.951 44.9159 47.504 44.9159H50.504V51.9219C50.504 53.5759 49.158 54.9219 47.504 54.9219C45.85 54.9219 44.504 53.5759 44.504 51.9219V27.9079C44.504 26.2539 45.85 24.9079 47.504 24.9079C49.158 24.9079 50.504 26.2539 50.504 27.9079ZM5.49805 24.9079H15.525C14.89 25.7459 14.5 26.7779 14.5 27.9079V51.9219C14.5 53.0519 14.891 54.0839 15.525 54.9219H5.49805C3.84405 54.9219 2.49805 53.5759 2.49805 51.9219V27.9079C2.49805 26.2539 3.84405 24.9079 5.49805 24.9079Z" fill="#F28705"/>
<path d="M5.5 32.9141H9.496V47.9201C9.496 48.4731 9.943 48.9201 10.496 48.9201C11.049 48.9201 11.496 48.4731 11.496 47.9201V31.9141C11.496 31.3611 11.049 30.9141 10.496 30.9141H5.5C4.947 30.9141 4.5 31.3611 4.5 31.9141C4.5 32.4671 4.947 32.9141 5.5 32.9141Z" fill="#F28705"/>
<path d="M24.498 30.9141H19.502C18.949 30.9141 18.502 31.3611 18.502 31.9141C18.502 32.4671 18.949 32.9141 19.502 32.9141H23.498V47.9201C23.498 48.4731 23.945 48.9201 24.498 48.9201C25.051 48.9201 25.498 48.4731 25.498 47.9201V31.9141C25.498 31.3611 25.051 30.9141 24.498 30.9141Z" fill="#F28705"/>
<path d="M33.502 32.9141H37.498V47.9201C37.498 48.4731 37.945 48.9201 38.498 48.9201C39.051 48.9201 39.498 48.4731 39.498 47.9201V31.9141C39.498 31.3611 39.051 30.9141 38.498 30.9141H33.502C32.949 30.9141 32.502 31.3611 32.502 31.9141C32.502 32.4671 32.949 32.9141 33.502 32.9141Z" fill="#F28705"/>
</svg>
