<svg width="30" height="30" viewBox="0 0 30 30" fill="none" xmlns="http://www.w3.org/2000/svg">
<rect width="30" height="30" rx="15" fill="#219653"/>
<path d="M24.6951 10.9841C24.5102 10.5373 23.9986 10.3252 23.5526 10.5102C23.1062 10.6947 22.8946 11.2063 23.0791 11.6527C24.9243 16.1077 22.801 21.233 18.3465 23.0782C16.1983 23.9684 13.8324 23.9736 11.6851 23.0939C9.51074 22.1997 7.81907 20.5133 6.92098 18.3459C5.07584 13.8909 7.19907 8.7656 11.6536 6.92046C13.8219 6.02237 16.2092 6.02674 18.3744 6.9327C18.8209 7.11984 19.332 6.90953 19.5187 6.46398C19.7054 6.01844 19.4951 5.50599 19.05 5.31973C16.4515 4.23188 13.5871 4.22663 10.9842 5.30486C5.63856 7.5186 3.09078 13.6692 5.30539 19.0153C6.38274 21.616 8.41197 23.6391 11.021 24.7121C12.3029 25.2372 13.6492 25.5 14.9959 25.5C16.3579 25.5 17.7199 25.2316 19.0159 24.6946C24.362 22.4804 26.9093 16.3298 24.6951 10.9841Z" fill="white"/>
<path d="M22.4434 7.60345C22.1019 7.26153 21.5483 7.26197 21.2069 7.60389L15.0252 13.7899L13.4301 12.1949C13.0891 11.8534 12.5347 11.8534 12.1936 12.1949C11.8521 12.5364 11.8521 13.0899 12.1936 13.4314L14.4074 15.6451C14.5713 15.8091 14.7939 15.9014 15.026 15.9014C15.2578 15.9014 15.4803 15.8091 15.6443 15.6451L22.4438 8.8404C22.7853 8.49848 22.7853 7.94493 22.4434 7.60345Z" fill="white"/>
<path d="M17.802 16.5673C17.461 16.2258 16.9065 16.2258 16.5655 16.5673L14.9976 18.1348L13.4296 16.5673C13.0886 16.2258 12.5342 16.2258 12.1931 16.5673C11.8516 16.9088 11.8516 17.4624 12.1931 17.8038L14.3793 19.99C14.5498 20.161 14.7737 20.2463 14.9976 20.2463C15.2214 20.2463 15.4453 20.161 15.6158 19.99L17.802 17.8038C18.1435 17.4624 18.1435 16.9088 17.802 16.5673Z" fill="white"/>
</svg>
