<svg width="33" height="11" viewBox="0 0 33 11" fill="none" xmlns="http://www.w3.org/2000/svg">
<path fill-rule="evenodd" clip-rule="evenodd" d="M11.725 10.8333L13.4333 0.166666H16.0733L14.365 10.8333H11.725ZM24.0709 0.416666C23.5456 0.202794 22.6931 0 21.6639 0C19.037 0 17.1757 1.42926 17.1603 3.49999C17.1436 5.03156 18.4824 5.90755 19.4897 6.41665C20.5251 6.9385 20.8915 7.28337 20.8874 7.74998C20.8803 8.46367 20.0207 8.74998 19.2568 8.74998C18.1931 8.74998 17.6459 8.64782 16.7721 8.24998L16.4615 8.08331L16.0733 10.4166C16.6928 10.7134 17.8319 10.9864 19.0239 11C21.8156 11 23.6614 9.54458 23.6827 7.33331C23.6923 6.1187 22.9642 5.26011 21.4309 4.49999C20.5024 4.00599 19.9491 3.66679 19.9556 3.16666C19.9562 2.72365 20.3903 2.24999 21.4309 2.24999C22.3 2.23552 22.9595 2.45011 23.4497 2.66666L23.6827 2.74999L24.0709 0.416666ZM30.8262 0.166666H28.8074C28.1705 0.166666 27.6888 0.388524 27.4097 1.08333L23.4497 10.8333H26.245C26.245 10.8333 26.6852 9.53829 26.7886 9.24998C27.093 9.24998 29.818 9.24998 30.205 9.24998C30.2847 9.62185 30.5156 10.8333 30.5156 10.8333H33.0003L30.8262 0.166666ZM27.565 7.08332C27.7852 6.47082 28.6521 4.08332 28.6521 4.08332C28.6366 4.11134 28.8285 3.48274 28.9627 3.08333L29.1956 3.99999C29.1956 3.99999 29.6342 6.5506 29.7392 7.08332H27.565ZM9.47328 0.166666L6.91093 7.49998L6.60034 5.99998C6.11573 4.29846 4.63834 2.4241 2.95093 1.5L5.35799 10.8333H8.15328L12.3462 0.166666H9.47328Z" fill="#0057A1"/>
<path fill-rule="evenodd" clip-rule="evenodd" d="M4.42588 0.000178814H0V0.250178C3.40868 1.17673 5.66393 3.39502 6.6 6.0835L5.66823 0.916843C5.50401 0.208009 5.0158 0.0249577 4.42588 0.000178814Z" fill="#F79510"/>
</svg>
