<svg width="1051" height="429" viewBox="0 0 1051 429" fill="none" xmlns="http://www.w3.org/2000/svg">
<path d="M324.139 331.881L270.232 330.484L273.733 415.725L268.132 423.41L181.322 429L175.721 422.013L178.521 329.785H74.9089L7.00083 331.881L0 322.798V252.23L168.72 6.2883H270.932L268.832 244.544H322.038L329.039 254.326L324.139 331.881ZM94.5113 244.544H179.921V129.958H172.921L94.5113 244.544Z" fill="#F9F9F9"/>
<path d="M535.334 0C582.473 0 619.111 15.6042 645.247 46.8127C671.384 77.5554 684.452 121.107 684.452 177.469C684.452 238.489 670.217 285.767 641.747 319.305C613.277 352.376 573.139 368.912 521.332 368.912C473.727 368.912 436.622 353.541 410.019 322.798C383.883 292.055 370.814 248.503 370.814 192.142C370.814 131.588 385.049 84.5423 413.52 51.0049C442.456 17.0016 483.061 0 535.334 0ZM526.933 103.407C502.197 103.407 484.228 109.928 473.027 122.971C462.292 135.547 456.925 156.275 456.925 185.155C456.925 214.966 462.525 236.858 473.727 250.832C484.928 264.806 502.897 271.793 527.633 271.793C552.369 271.793 570.338 265.272 581.539 252.23C593.208 239.187 599.042 218.459 599.042 190.046C599.042 159.769 593.208 137.876 581.539 124.368C569.871 110.394 551.669 103.407 526.933 103.407Z" fill="#F9F9F9"/>
<path d="M1046.1 331.881L992.193 330.484L995.694 415.725L990.093 423.41L903.282 429L897.682 422.013L900.482 329.785H796.87L728.962 331.881L721.961 322.798V252.23L890.681 6.2883H992.893L990.793 244.544H1044L1051 254.326L1046.1 331.881ZM816.472 244.544H901.882V129.958H894.881L816.472 244.544Z" fill="#F9F9F9"/>
</svg>
