<svg width="287" height="31" viewBox="0 0 287 31" fill="none" xmlns="http://www.w3.org/2000/svg">
<path d="M0.0500002 30V0.299998H5.882L18.68 20.28V0.299998H24.512V30H18.68L5.882 10.02V30H0.0500002ZM39.4987 30.576C37.8067 30.576 36.2647 30.156 34.8727 29.316C33.4927 28.464 32.3947 27.3 31.5787 25.824C30.7747 24.336 30.3727 22.644 30.3727 20.748C30.3727 18.9 30.7627 17.244 31.5427 15.78C32.3227 14.304 33.3967 13.14 34.7647 12.288C36.1447 11.424 37.7227 10.992 39.4987 10.992C40.8067 10.992 42.0247 11.244 43.1527 11.748C44.2927 12.24 45.2227 12.93 45.9427 13.818V11.568H51.4687V30H45.9427V27.57C45.1027 28.542 44.1367 29.286 43.0447 29.802C41.9527 30.318 40.7707 30.576 39.4987 30.576ZM41.1367 25.878C42.0967 25.878 42.9487 25.662 43.6927 25.23C44.4367 24.786 45.0187 24.18 45.4387 23.412C45.8587 22.644 46.0687 21.768 46.0687 20.784C46.0687 19.788 45.8527 18.912 45.4207 18.156C45.0007 17.388 44.4187 16.788 43.6747 16.356C42.9427 15.912 42.0967 15.69 41.1367 15.69C40.1887 15.69 39.3427 15.912 38.5987 16.356C37.8547 16.788 37.2667 17.388 36.8347 18.156C36.4027 18.924 36.1867 19.8 36.1867 20.784C36.1867 21.768 36.3967 22.644 36.8167 23.412C37.2487 24.18 37.8367 24.786 38.5807 25.23C39.3247 25.662 40.1767 25.878 41.1367 25.878ZM57.9689 30V11.568H63.4949V13.62C64.4069 12.708 65.3129 12.042 66.2129 11.622C67.1129 11.202 68.0849 10.992 69.1289 10.992C70.5449 10.992 71.8229 11.31 72.9629 11.946C74.1029 12.582 74.9189 13.434 75.4109 14.502C76.3109 13.338 77.2769 12.462 78.3089 11.874C79.3409 11.286 80.5229 10.992 81.8549 10.992C83.1869 10.992 84.3689 11.268 85.4009 11.82C86.4329 12.372 87.2429 13.158 87.8309 14.178C88.4309 15.186 88.7309 16.38 88.7309 17.76V30H83.2049V19.272C83.2049 18.072 82.8929 17.13 82.2689 16.446C81.6449 15.75 80.8109 15.402 79.7669 15.402C79.0469 15.402 78.4109 15.552 77.8589 15.852C77.3189 16.152 76.8929 16.554 76.5809 17.058C76.2689 17.562 76.1129 18.12 76.1129 18.732V30H70.5869V19.164C70.5869 18.024 70.2809 17.112 69.6689 16.428C69.0689 15.744 68.2349 15.402 67.1669 15.402C66.4589 15.402 65.8229 15.552 65.2589 15.852C64.7069 16.152 64.2749 16.56 63.9629 17.076C63.6509 17.592 63.4949 18.162 63.4949 18.786V30H57.9689ZM103.809 30.576C101.817 30.576 100.029 30.15 98.4453 29.298C96.8733 28.434 95.6253 27.264 94.7013 25.788C93.7773 24.312 93.3153 22.644 93.3153 20.784C93.3153 19.416 93.5733 18.138 94.0893 16.95C94.6173 15.762 95.3493 14.724 96.2853 13.836C97.2213 12.936 98.3073 12.24 99.5433 11.748C100.779 11.244 102.117 10.992 103.557 10.992C105.477 10.992 107.157 11.394 108.597 12.198C110.049 12.99 111.177 14.094 111.981 15.51C112.797 16.926 113.205 18.576 113.205 20.46C113.205 20.616 113.199 20.754 113.187 20.874C113.187 20.982 113.169 21.192 113.133 21.504H99.0033C99.0033 22.44 99.2133 23.256 99.6333 23.952C100.065 24.648 100.665 25.194 101.433 25.59C102.201 25.974 103.095 26.166 104.115 26.166C105.075 26.166 105.921 25.98 106.653 25.608C107.397 25.236 108.111 24.642 108.795 23.826L112.773 25.824C111.909 27.312 110.685 28.476 109.101 29.316C107.517 30.156 105.753 30.576 103.809 30.576ZM99.2013 18.444H107.769C107.649 17.736 107.391 17.124 106.995 16.608C106.611 16.092 106.119 15.696 105.519 15.42C104.919 15.144 104.241 15.006 103.485 15.006C102.681 15.006 101.973 15.144 101.361 15.42C100.749 15.696 100.257 16.092 99.8853 16.608C99.5133 17.124 99.2853 17.736 99.2013 18.444ZM133.115 30.576C131.555 30.576 130.157 30.33 128.921 29.838C127.697 29.346 126.677 28.626 125.861 27.678L128.183 23.97C128.951 24.786 129.755 25.41 130.595 25.842C131.435 26.274 132.275 26.49 133.115 26.49C133.583 26.49 133.985 26.412 134.321 26.256C134.669 26.1 134.939 25.878 135.131 25.59C135.335 25.29 135.437 24.93 135.437 24.51C135.437 24.03 135.299 23.652 135.023 23.376C134.759 23.1 134.351 22.848 133.799 22.62C133.247 22.38 132.533 22.08 131.657 21.72C130.913 21.408 130.199 21.054 129.515 20.658C128.831 20.262 128.273 19.758 127.841 19.146C127.421 18.534 127.211 17.76 127.211 16.824C127.211 15.684 127.529 14.682 128.165 13.818C128.801 12.942 129.677 12.258 130.793 11.766C131.921 11.274 133.217 11.028 134.681 11.028C135.593 11.028 136.547 11.166 137.543 11.442C138.551 11.718 139.625 12.138 140.765 12.702L138.875 16.248C137.327 15.252 135.941 14.754 134.717 14.754C134.033 14.754 133.487 14.904 133.079 15.204C132.671 15.504 132.467 15.882 132.467 16.338C132.467 16.77 132.677 17.148 133.097 17.472C133.529 17.784 134.051 18.066 134.663 18.318C135.287 18.558 135.881 18.78 136.445 18.984C137.369 19.32 138.185 19.692 138.893 20.1C139.613 20.508 140.177 21.042 140.585 21.702C140.993 22.35 141.197 23.22 141.197 24.312C141.197 25.644 140.873 26.778 140.225 27.714C139.589 28.638 138.665 29.346 137.453 29.838C136.253 30.33 134.807 30.576 133.115 30.576ZM146.299 30V11.568H151.825V30H146.299ZM149.071 7.734C148.471 7.734 147.919 7.59 147.415 7.302C146.923 7.002 146.527 6.6 146.227 6.096C145.927 5.592 145.777 5.04 145.777 4.44C145.777 3.84 145.927 3.294 146.227 2.802C146.527 2.31 146.923 1.92 147.415 1.632C147.919 1.332 148.471 1.182 149.071 1.182C149.671 1.182 150.217 1.332 150.709 1.632C151.201 1.92 151.591 2.31 151.879 2.802C152.179 3.294 152.329 3.84 152.329 4.44C152.329 5.04 152.179 5.592 151.879 6.096C151.591 6.6 151.201 7.002 150.709 7.302C150.217 7.59 149.671 7.734 149.071 7.734ZM164.694 30.576C162.858 30.576 161.43 29.994 160.41 28.83C159.39 27.654 158.88 26.016 158.88 23.916V15.762H156.414V11.568H158.88V4.656H164.406V11.568H168.456V15.762H164.406V23.52C164.406 24.216 164.544 24.744 164.82 25.104C165.108 25.464 165.51 25.644 166.026 25.644C166.602 25.644 167.154 25.452 167.682 25.068L169.068 29.496C168.444 29.832 167.742 30.096 166.962 30.288C166.194 30.48 165.438 30.576 164.694 30.576ZM182.7 30.576C180.708 30.576 178.92 30.15 177.336 29.298C175.764 28.434 174.516 27.264 173.592 25.788C172.668 24.312 172.206 22.644 172.206 20.784C172.206 19.416 172.464 18.138 172.98 16.95C173.508 15.762 174.24 14.724 175.176 13.836C176.112 12.936 177.198 12.24 178.434 11.748C179.67 11.244 181.008 10.992 182.448 10.992C184.368 10.992 186.048 11.394 187.488 12.198C188.94 12.99 190.068 14.094 190.872 15.51C191.688 16.926 192.096 18.576 192.096 20.46C192.096 20.616 192.09 20.754 192.078 20.874C192.078 20.982 192.06 21.192 192.024 21.504H177.894C177.894 22.44 178.104 23.256 178.524 23.952C178.956 24.648 179.556 25.194 180.324 25.59C181.092 25.974 181.986 26.166 183.006 26.166C183.966 26.166 184.812 25.98 185.544 25.608C186.288 25.236 187.002 24.642 187.686 23.826L191.664 25.824C190.8 27.312 189.576 28.476 187.992 29.316C186.408 30.156 184.644 30.576 182.7 30.576ZM178.092 18.444H186.66C186.54 17.736 186.282 17.124 185.886 16.608C185.502 16.092 185.01 15.696 184.41 15.42C183.81 15.144 183.132 15.006 182.376 15.006C181.572 15.006 180.864 15.144 180.252 15.42C179.64 15.696 179.148 16.092 178.776 16.608C178.404 17.124 178.176 17.736 178.092 18.444ZM201.15 30.576C200.478 30.576 199.866 30.414 199.314 30.09C198.774 29.766 198.342 29.334 198.018 28.794C197.706 28.242 197.55 27.636 197.55 26.976C197.55 26.304 197.706 25.698 198.018 25.158C198.342 24.618 198.78 24.186 199.332 23.862C199.884 23.538 200.49 23.376 201.15 23.376C201.822 23.376 202.428 23.538 202.968 23.862C203.508 24.186 203.94 24.618 204.264 25.158C204.588 25.698 204.75 26.304 204.75 26.976C204.75 27.636 204.588 28.242 204.264 28.794C203.94 29.334 203.508 29.766 202.968 30.09C202.428 30.414 201.822 30.576 201.15 30.576ZM220.4 30.576C218.996 30.576 217.67 30.324 216.422 29.82C215.186 29.316 214.094 28.62 213.146 27.732C212.198 26.832 211.454 25.794 210.914 24.618C210.374 23.43 210.104 22.158 210.104 20.802C210.104 19.494 210.356 18.252 210.86 17.076C211.376 15.9 212.096 14.856 213.02 13.944C213.956 13.032 215.048 12.312 216.296 11.784C217.556 11.256 218.918 10.992 220.382 10.992C221.57 10.992 222.71 11.16 223.802 11.496C224.906 11.832 225.794 12.264 226.466 12.792L224.576 16.518C223.676 15.858 222.56 15.528 221.228 15.528C220.088 15.528 219.122 15.78 218.33 16.284C217.538 16.788 216.932 17.442 216.512 18.246C216.104 19.05 215.9 19.896 215.9 20.784C215.9 21.756 216.122 22.644 216.566 23.448C217.01 24.24 217.634 24.87 218.438 25.338C219.254 25.806 220.196 26.04 221.264 26.04C221.924 26.04 222.542 25.95 223.118 25.77C223.694 25.59 224.18 25.35 224.576 25.05L226.466 28.776C225.782 29.292 224.9 29.718 223.82 30.054C222.74 30.402 221.6 30.576 220.4 30.576ZM240.118 30.576C238.09 30.576 236.26 30.162 234.628 29.334C232.996 28.494 231.7 27.342 230.74 25.878C229.78 24.402 229.3 22.704 229.3 20.784C229.3 18.864 229.774 17.172 230.722 15.708C231.682 14.232 232.978 13.08 234.61 12.252C236.254 11.412 238.09 10.992 240.118 10.992C242.158 10.992 243.994 11.412 245.626 12.252C247.258 13.08 248.548 14.232 249.496 15.708C250.456 17.172 250.936 18.864 250.936 20.784C250.936 22.704 250.456 24.402 249.496 25.878C248.548 27.342 247.258 28.494 245.626 29.334C243.994 30.162 242.158 30.576 240.118 30.576ZM240.136 25.86C241.072 25.86 241.924 25.644 242.692 25.212C243.46 24.78 244.066 24.186 244.51 23.43C244.954 22.662 245.176 21.78 245.176 20.784C245.176 19.788 244.954 18.912 244.51 18.156C244.066 17.388 243.46 16.788 242.692 16.356C241.924 15.924 241.072 15.708 240.136 15.708C239.188 15.708 238.33 15.924 237.562 16.356C236.806 16.788 236.206 17.388 235.762 18.156C235.318 18.912 235.096 19.788 235.096 20.784C235.096 21.78 235.318 22.662 235.762 23.43C236.206 24.186 236.806 24.78 237.562 25.212C238.33 25.644 239.188 25.86 240.136 25.86ZM255.758 30V11.568H261.284V13.62C262.196 12.708 263.102 12.042 264.002 11.622C264.902 11.202 265.874 10.992 266.918 10.992C268.334 10.992 269.612 11.31 270.752 11.946C271.892 12.582 272.708 13.434 273.2 14.502C274.1 13.338 275.066 12.462 276.098 11.874C277.13 11.286 278.312 10.992 279.644 10.992C280.976 10.992 282.158 11.268 283.19 11.82C284.222 12.372 285.032 13.158 285.62 14.178C286.22 15.186 286.52 16.38 286.52 17.76V30H280.994V19.272C280.994 18.072 280.682 17.13 280.058 16.446C279.434 15.75 278.6 15.402 277.556 15.402C276.836 15.402 276.2 15.552 275.648 15.852C275.108 16.152 274.682 16.554 274.37 17.058C274.058 17.562 273.902 18.12 273.902 18.732V30H268.376V19.164C268.376 18.024 268.07 17.112 267.458 16.428C266.858 15.744 266.024 15.402 264.956 15.402C264.248 15.402 263.612 15.552 263.048 15.852C262.496 16.152 262.064 16.56 261.752 17.076C261.44 17.592 261.284 18.162 261.284 18.786V30H255.758Z" fill="white"/>
</svg>
