<svg width="223" height="25" viewBox="0 0 223 25" fill="none" xmlns="http://www.w3.org/2000/svg">
<path d="M0.15 24V0.899999H4.686L14.64 16.44V0.899999H19.176V24H14.64L4.686 8.46V24H0.15ZM30.8323 24.448C29.5163 24.448 28.317 24.1213 27.2343 23.468C26.161 22.8053 25.307 21.9 24.6723 20.752C24.047 19.5947 23.7343 18.2787 23.7343 16.804C23.7343 15.3667 24.0376 14.0787 24.6443 12.94C25.251 11.792 26.0863 10.8867 27.1503 10.224C28.2236 9.552 29.451 9.216 30.8323 9.216C31.8496 9.216 32.797 9.412 33.6743 9.804C34.561 10.1867 35.2843 10.7233 35.8443 11.414V9.664H40.1423V24H35.8443V22.11C35.191 22.866 34.4396 23.4447 33.5903 23.846C32.741 24.2473 31.8216 24.448 30.8323 24.448ZM32.1063 20.794C32.853 20.794 33.5156 20.626 34.0943 20.29C34.673 19.9447 35.1256 19.4733 35.4523 18.876C35.779 18.2787 35.9423 17.5973 35.9423 16.832C35.9423 16.0573 35.7743 15.376 35.4383 14.788C35.1116 14.1907 34.659 13.724 34.0803 13.388C33.511 13.0427 32.853 12.87 32.1063 12.87C31.369 12.87 30.711 13.0427 30.1323 13.388C29.5536 13.724 29.0963 14.1907 28.7603 14.788C28.4243 15.3853 28.2563 16.0667 28.2563 16.832C28.2563 17.5973 28.4196 18.2787 28.7463 18.876C29.0823 19.4733 29.5396 19.9447 30.1183 20.29C30.697 20.626 31.3596 20.794 32.1063 20.794ZM45.1981 24V9.664H49.4961V11.26C50.2054 10.5507 50.9101 10.0327 51.6101 9.706C52.3101 9.37933 53.0661 9.216 53.8781 9.216C54.9794 9.216 55.9734 9.46333 56.8601 9.958C57.7467 10.4527 58.3814 11.1153 58.7641 11.946C59.4641 11.0407 60.2154 10.3593 61.0181 9.902C61.8207 9.44467 62.7401 9.216 63.7761 9.216C64.8121 9.216 65.7314 9.43067 66.5341 9.86C67.3367 10.2893 67.9667 10.9007 68.4241 11.694C68.8907 12.478 69.1241 13.4067 69.1241 14.48V24H64.8261V15.656C64.8261 14.7227 64.5834 13.99 64.0981 13.458C63.6127 12.9167 62.9641 12.646 62.1521 12.646C61.5921 12.646 61.0974 12.7627 60.6681 12.996C60.2481 13.2293 59.9167 13.542 59.6741 13.934C59.4314 14.326 59.3101 14.76 59.3101 15.236V24H55.0121V15.572C55.0121 14.6853 54.7741 13.976 54.2981 13.444C53.8314 12.912 53.1827 12.646 52.3521 12.646C51.8014 12.646 51.3067 12.7627 50.8681 12.996C50.4387 13.2293 50.1027 13.5467 49.8601 13.948C49.6174 14.3493 49.4961 14.7927 49.4961 15.278V24H45.1981ZM80.8517 24.448C79.3024 24.448 77.9117 24.1167 76.6797 23.454C75.457 22.782 74.4864 21.872 73.7677 20.724C73.049 19.576 72.6897 18.2787 72.6897 16.832C72.6897 15.768 72.8904 14.774 73.2917 13.85C73.7024 12.926 74.2717 12.1187 74.9997 11.428C75.7277 10.728 76.5724 10.1867 77.5337 9.804C78.495 9.412 79.5357 9.216 80.6557 9.216C82.149 9.216 83.4557 9.52867 84.5757 10.154C85.705 10.77 86.5824 11.6287 87.2077 12.73C87.8424 13.8313 88.1597 15.1147 88.1597 16.58C88.1597 16.7013 88.155 16.8087 88.1457 16.902C88.1457 16.986 88.1317 17.1493 88.1037 17.392H77.1137C77.1137 18.12 77.277 18.7547 77.6037 19.296C77.9397 19.8373 78.4064 20.262 79.0037 20.57C79.601 20.8687 80.2964 21.018 81.0897 21.018C81.8364 21.018 82.4944 20.8733 83.0637 20.584C83.6424 20.2947 84.1977 19.8327 84.7297 19.198L87.8237 20.752C87.1517 21.9093 86.1997 22.8147 84.9677 23.468C83.7357 24.1213 82.3637 24.448 80.8517 24.448ZM77.2677 15.012H83.9317C83.8384 14.4613 83.6377 13.9853 83.3297 13.584C83.031 13.1827 82.6484 12.8747 82.1817 12.66C81.715 12.4453 81.1877 12.338 80.5997 12.338C79.9744 12.338 79.4237 12.4453 78.9477 12.66C78.4717 12.8747 78.089 13.1827 77.7997 13.584C77.5104 13.9853 77.333 14.4613 77.2677 15.012ZM103.645 24.448C102.431 24.448 101.344 24.2567 100.383 23.874C99.4308 23.4913 98.6374 22.9313 98.0028 22.194L99.8088 19.31C100.406 19.9447 101.031 20.43 101.685 20.766C102.338 21.102 102.991 21.27 103.645 21.27C104.009 21.27 104.321 21.2093 104.583 21.088C104.853 20.9667 105.063 20.794 105.213 20.57C105.371 20.3367 105.451 20.0567 105.451 19.73C105.451 19.3567 105.343 19.0627 105.129 18.848C104.923 18.6333 104.606 18.4373 104.177 18.26C103.747 18.0733 103.192 17.84 102.511 17.56C101.932 17.3173 101.377 17.042 100.845 16.734C100.313 16.426 99.8788 16.034 99.5428 15.558C99.2161 15.082 99.0528 14.48 99.0528 13.752C99.0528 12.8653 99.3001 12.086 99.7948 11.414C100.289 10.7327 100.971 10.2007 101.839 9.818C102.716 9.43533 103.724 9.244 104.863 9.244C105.572 9.244 106.314 9.35133 107.089 9.566C107.873 9.78067 108.708 10.1073 109.595 10.546L108.125 13.304C106.921 12.5293 105.843 12.142 104.891 12.142C104.359 12.142 103.934 12.2587 103.617 12.492C103.299 12.7253 103.141 13.0193 103.141 13.374C103.141 13.71 103.304 14.004 103.631 14.256C103.967 14.4987 104.373 14.718 104.849 14.914C105.334 15.1007 105.796 15.2733 106.235 15.432C106.953 15.6933 107.588 15.9827 108.139 16.3C108.699 16.6173 109.137 17.0327 109.455 17.546C109.772 18.05 109.931 18.7267 109.931 19.576C109.931 20.612 109.679 21.494 109.175 22.222C108.68 22.9407 107.961 23.4913 107.019 23.874C106.085 24.2567 104.961 24.448 103.645 24.448ZM113.899 24V9.664H118.197V24H113.899ZM116.055 6.682C115.588 6.682 115.159 6.57 114.767 6.346C114.384 6.11267 114.076 5.8 113.843 5.408C113.61 5.016 113.493 4.58667 113.493 4.12C113.493 3.65333 113.61 3.22867 113.843 2.846C114.076 2.46333 114.384 2.16 114.767 1.936C115.159 1.70267 115.588 1.586 116.055 1.586C116.522 1.586 116.946 1.70267 117.329 1.936C117.712 2.16 118.015 2.46333 118.239 2.846C118.472 3.22867 118.589 3.65333 118.589 4.12C118.589 4.58667 118.472 5.016 118.239 5.408C118.015 5.8 117.712 6.11267 117.329 6.346C116.946 6.57 116.522 6.682 116.055 6.682ZM128.206 24.448C126.778 24.448 125.668 23.9953 124.874 23.09C124.081 22.1753 123.684 20.9013 123.684 19.268V12.926H121.766V9.664H123.684V4.288H127.982V9.664H131.132V12.926H127.982V18.96C127.982 19.5013 128.09 19.912 128.304 20.192C128.528 20.472 128.841 20.612 129.242 20.612C129.69 20.612 130.12 20.4627 130.53 20.164L131.608 23.608C131.123 23.8693 130.577 24.0747 129.97 24.224C129.373 24.3733 128.785 24.448 128.206 24.448ZM142.211 24.448C140.662 24.448 139.271 24.1167 138.039 23.454C136.816 22.782 135.846 21.872 135.127 20.724C134.408 19.576 134.049 18.2787 134.049 16.832C134.049 15.768 134.25 14.774 134.651 13.85C135.062 12.926 135.631 12.1187 136.359 11.428C137.087 10.728 137.932 10.1867 138.893 9.804C139.854 9.412 140.895 9.216 142.015 9.216C143.508 9.216 144.815 9.52867 145.935 10.154C147.064 10.77 147.942 11.6287 148.567 12.73C149.202 13.8313 149.519 15.1147 149.519 16.58C149.519 16.7013 149.514 16.8087 149.505 16.902C149.505 16.986 149.491 17.1493 149.463 17.392H138.473C138.473 18.12 138.636 18.7547 138.963 19.296C139.299 19.8373 139.766 20.262 140.363 20.57C140.96 20.8687 141.656 21.018 142.449 21.018C143.196 21.018 143.854 20.8733 144.423 20.584C145.002 20.2947 145.557 19.8327 146.089 19.198L149.183 20.752C148.511 21.9093 147.559 22.8147 146.327 23.468C145.095 24.1213 143.723 24.448 142.211 24.448ZM138.627 15.012H145.291C145.198 14.4613 144.997 13.9853 144.689 13.584C144.39 13.1827 144.008 12.8747 143.541 12.66C143.074 12.4453 142.547 12.338 141.959 12.338C141.334 12.338 140.783 12.4453 140.307 12.66C139.831 12.8747 139.448 13.1827 139.159 13.584C138.87 13.9853 138.692 14.4613 138.627 15.012ZM156.561 24.448C156.039 24.448 155.563 24.322 155.133 24.07C154.713 23.818 154.377 23.482 154.125 23.062C153.883 22.6327 153.761 22.1613 153.761 21.648C153.761 21.1253 153.883 20.654 154.125 20.234C154.377 19.814 154.718 19.478 155.147 19.226C155.577 18.974 156.048 18.848 156.561 18.848C157.084 18.848 157.555 18.974 157.975 19.226C158.395 19.478 158.731 19.814 158.983 20.234C159.235 20.654 159.361 21.1253 159.361 21.648C159.361 22.1613 159.235 22.6327 158.983 23.062C158.731 23.482 158.395 23.818 157.975 24.07C157.555 24.322 157.084 24.448 156.561 24.448ZM171.533 24.448C170.441 24.448 169.41 24.252 168.439 23.86C167.478 23.468 166.628 22.9267 165.891 22.236C165.154 21.536 164.575 20.7287 164.155 19.814C163.735 18.89 163.525 17.9007 163.525 16.846C163.525 15.8287 163.721 14.8627 164.113 13.948C164.514 13.0333 165.074 12.2213 165.793 11.512C166.521 10.8027 167.37 10.2427 168.341 9.832C169.321 9.42133 170.38 9.216 171.519 9.216C172.443 9.216 173.33 9.34667 174.179 9.608C175.038 9.86933 175.728 10.2053 176.251 10.616L174.781 13.514C174.081 13.0007 173.213 12.744 172.177 12.744C171.29 12.744 170.539 12.94 169.923 13.332C169.307 13.724 168.836 14.2327 168.509 14.858C168.192 15.4833 168.033 16.1413 168.033 16.832C168.033 17.588 168.206 18.2787 168.551 18.904C168.896 19.52 169.382 20.01 170.007 20.374C170.642 20.738 171.374 20.92 172.205 20.92C172.718 20.92 173.199 20.85 173.647 20.71C174.095 20.57 174.473 20.3833 174.781 20.15L176.251 23.048C175.719 23.4493 175.033 23.7807 174.193 24.042C173.353 24.3127 172.466 24.448 171.533 24.448ZM186.869 24.448C185.292 24.448 183.869 24.126 182.599 23.482C181.33 22.8287 180.322 21.9327 179.575 20.794C178.829 19.646 178.455 18.3253 178.455 16.832C178.455 15.3387 178.824 14.0227 179.561 12.884C180.308 11.736 181.316 10.84 182.585 10.196C183.864 9.54267 185.292 9.216 186.869 9.216C188.456 9.216 189.884 9.54267 191.153 10.196C192.423 10.84 193.426 11.736 194.163 12.884C194.91 14.0227 195.283 15.3387 195.283 16.832C195.283 18.3253 194.91 19.646 194.163 20.794C193.426 21.9327 192.423 22.8287 191.153 23.482C189.884 24.126 188.456 24.448 186.869 24.448ZM186.883 20.78C187.611 20.78 188.274 20.612 188.871 20.276C189.469 19.94 189.94 19.478 190.285 18.89C190.631 18.2927 190.803 17.6067 190.803 16.832C190.803 16.0573 190.631 15.376 190.285 14.788C189.94 14.1907 189.469 13.724 188.871 13.388C188.274 13.052 187.611 12.884 186.883 12.884C186.146 12.884 185.479 13.052 184.881 13.388C184.293 13.724 183.827 14.1907 183.481 14.788C183.136 15.376 182.963 16.0573 182.963 16.832C182.963 17.6067 183.136 18.2927 183.481 18.89C183.827 19.478 184.293 19.94 184.881 20.276C185.479 20.612 186.146 20.78 186.883 20.78ZM199.034 24V9.664H203.332V11.26C204.041 10.5507 204.746 10.0327 205.446 9.706C206.146 9.37933 206.902 9.216 207.714 9.216C208.815 9.216 209.809 9.46333 210.696 9.958C211.583 10.4527 212.217 11.1153 212.6 11.946C213.3 11.0407 214.051 10.3593 214.854 9.902C215.657 9.44467 216.576 9.216 217.612 9.216C218.648 9.216 219.567 9.43067 220.37 9.86C221.173 10.2893 221.803 10.9007 222.26 11.694C222.727 12.478 222.96 13.4067 222.96 14.48V24H218.662V15.656C218.662 14.7227 218.419 13.99 217.934 13.458C217.449 12.9167 216.8 12.646 215.988 12.646C215.428 12.646 214.933 12.7627 214.504 12.996C214.084 13.2293 213.753 13.542 213.51 13.934C213.267 14.326 213.146 14.76 213.146 15.236V24H208.848V15.572C208.848 14.6853 208.61 13.976 208.134 13.444C207.667 12.912 207.019 12.646 206.188 12.646C205.637 12.646 205.143 12.7627 204.704 12.996C204.275 13.2293 203.939 13.5467 203.696 13.948C203.453 14.3493 203.332 14.7927 203.332 15.278V24H199.034Z" fill="#F4743B"/>
</svg>
